<svg xmlns="http://www.w3.org/2000/svg" viewBox="0 0 28.97 40">
  <defs>
    <style>
      .cls-1 {
        fill: #e42a24;
      }
    </style>
  </defs>
  <title>pin_galior</title>
  <g id="Layer_2" data-name="Layer 2">
    <g id="Слой_1" data-name="Слой 1">
      <g>
        <path class="cls-1" d="M14.49,0A14.5,14.5,0,0,0,0,14.49C0,24.4,13,39,13.52,39.57a1.3,1.3,0,0,0,1.94,0C16,39,29,24.4,29,14.49A14.5,14.5,0,0,0,14.49,0Zm-.64,26.47A12.27,12.27,0,1,1,26.74,14.86,12.27,12.27,0,0,1,13.84,26.47Z"/>
        <g id="Shape_1_copy_2" data-name="Shape 1 copy 2">
          <path class="cls-1" d="M24,11.35c-2-3.65-7-4-10.42-2a9.51,9.51,0,0,0-4.72,9.41,8.7,8.7,0,0,1-1.08-5.6A9,9,0,0,1,10.3,8.56a3.11,3.11,0,0,0-4.07.56c-3.77,3.77-1.71,14.06,7.89,14.45C22,23.88,26.68,16.21,24,11.35Zm-5.91,8.37a4.62,4.62,0,0,1-3,.15,4.05,4.05,0,0,0,2.18-.26A5.65,5.65,0,0,0,20.9,14.3a2.74,2.74,0,0,0-3.32-2.46l0,0c2.56-.92,4.74.11,4.87,2.29S20.65,18.8,18.09,19.72ZM14.49.29A14.46,14.46,0,1,0,28.95,14.76,14.46,14.46,0,0,0,14.49.29ZM23,22.81a12,12,0,0,1-16.9,0c-4.67-4.67-4-11.29-.66-14.17,2.08-1.79,4.25-1.8,5.69-.86,1.5-1.2,6.13-3.69,10.92-1C27.28,9.69,27.64,18.15,23,22.81Z"/>
        </g>
      </g>
    </g>
  </g>
</svg>
