<?xml version="1.0" encoding="utf-8"?>
<!-- Generator: Adobe Illustrator 19.2.1, SVG Export Plug-In . SVG Version: 6.00 Build 0)  -->
<svg version="1.1" id="Слой_1" xmlns="http://www.w3.org/2000/svg" xmlns:xlink="http://www.w3.org/1999/xlink" x="0px" y="0px"
	 viewBox="0 0 100 63.3" style="enable-background:new 0 0 100 63.3;" xml:space="preserve">
<style type="text/css">
	.st0{fill:#748947;}
</style>
<title>logo</title>
<g id="Layer_2">
	<g id="Layer_1-2">
		<g>
			<polygon class="st0" points="32.7,59.5 32.7,60.8 34.4,60.8 34.4,59.5 34.8,59.5 34.8,62.7 34.4,62.7 34.4,61.3 32.7,61.3 
				32.7,62.7 32.3,62.7 32.3,59.5 			"/>
			<path class="st0" d="M39.3,59.9h-0.9c0,0.2,0,0.4,0,0.6c0,0.2-0.1,0.4-0.1,0.6c-0.1,0.2-0.1,0.4-0.2,0.6
				c-0.1,0.2-0.1,0.3-0.2,0.5h1.5L39.3,59.9z M40.2,62.2v1.1h-0.4v-0.7h-2.3v0.7h-0.4v-1.1h0.3c0.1-0.2,0.2-0.3,0.3-0.5
				c0.1-0.2,0.2-0.4,0.2-0.6c0.1-0.2,0.1-0.4,0.2-0.6c0-0.2,0.1-0.5,0-0.7v-0.3h1.7v2.7L40.2,62.2z"/>
			<path class="st0" d="M45.8,61h0.5c0.1,0,0.3-0.1,0.4-0.2c0.1-0.1,0.2-0.2,0.2-0.4c0-0.1,0-0.1,0-0.2c0-0.1-0.1-0.1-0.1-0.2
				c0,0-0.1-0.1-0.2-0.1c-0.1,0-0.1,0-0.2,0h-0.5L45.8,61z M46.3,59.5c0.1,0,0.3,0,0.4,0.1c0.1,0,0.2,0.1,0.3,0.2
				c0.1,0.1,0.2,0.2,0.2,0.3c0.1,0.1,0.1,0.3,0.1,0.4c0,0.1,0,0.3-0.1,0.4c0,0.1-0.1,0.2-0.2,0.3c-0.1,0.1-0.2,0.2-0.3,0.2
				c-0.1,0-0.3,0.1-0.4,0.1h-0.5v1.2h-0.4v-3.2L46.3,59.5L46.3,59.5z"/>
			<path class="st0" d="M50.9,61.5l-0.5-1.4l-0.5,1.4H50.9z M51.4,62.7l-0.3-0.7h-1.4l-0.3,0.7H49l1.2-3.2h0.5l1.2,3.2L51.4,62.7z"
				/>
			<path class="st0" d="M55.3,61c0.1,0.1,0.2,0.2,0.3,0.3c0.1,0.2,0.1,0.3,0.1,0.5c0,0.1,0,0.3-0.1,0.4c0,0.1-0.1,0.2-0.2,0.3
				c-0.1,0.1-0.2,0.1-0.3,0.2c-0.1,0-0.3,0.1-0.4,0.1c-0.1,0-0.2,0-0.3,0c-0.1,0-0.2-0.1-0.3-0.1c-0.1,0-0.1-0.1-0.2-0.2
				c-0.1-0.1-0.1-0.1-0.1-0.2l0.1-0.4c0.1,0.1,0.2,0.3,0.4,0.3c0.1,0.1,0.3,0.1,0.5,0.1c0.2,0,0.3,0,0.4-0.1
				c0.1-0.1,0.2-0.2,0.2-0.4c0-0.1,0-0.1,0-0.2c0-0.1-0.1-0.1-0.1-0.2c-0.1-0.1-0.1-0.1-0.2-0.1c-0.1,0-0.2,0-0.3,0h-0.3v-0.5h0.3
				c0.1,0,0.1,0,0.2,0c0.1,0,0.1-0.1,0.2-0.1c0.1-0.1,0.1-0.2,0.1-0.3c0-0.2-0.2-0.4-0.4-0.4c0,0,0,0,0,0c-0.1,0-0.3,0-0.4,0.1
				c-0.1,0.1-0.2,0.2-0.3,0.3L54,60.1c0-0.1,0.1-0.1,0.1-0.2c0.1-0.1,0.1-0.1,0.2-0.1c0.1,0,0.1-0.1,0.2-0.1c0.1,0,0.2,0,0.3,0
				c0.1,0,0.2,0,0.3,0.1c0.1,0,0.2,0.1,0.3,0.2c0.1,0.1,0.1,0.2,0.2,0.3c0,0.1,0.1,0.2,0.1,0.3c0,0.1,0,0.3-0.1,0.4
				c-0.1,0.1-0.1,0.2-0.2,0.3L55.3,61z"/>
			<path class="st0" d="M58.4,62.2h0.6c0.1,0,0.1,0,0.2,0c0.1,0,0.1,0,0.2-0.1c0,0,0.1-0.1,0.1-0.2c0-0.1,0-0.1,0-0.2
				c0-0.1,0-0.2-0.1-0.3c0,0-0.1-0.1-0.2-0.1c-0.1,0-0.1,0-0.2,0h-0.6L58.4,62.2z M58.4,60.8h0.5c0.1,0,0.2,0,0.3-0.1
				c0.1-0.1,0.1-0.2,0.1-0.3c0-0.1,0-0.2-0.1-0.3c-0.1-0.1-0.2-0.1-0.3-0.1h-0.5L58.4,60.8z M58.8,59.5c0.1,0,0.3,0,0.4,0.1
				c0.1,0,0.2,0.1,0.3,0.2c0.1,0.1,0.2,0.2,0.2,0.3c0,0.1,0.1,0.2,0.1,0.4c0,0.1,0,0.2-0.1,0.4c0,0.1-0.1,0.2-0.2,0.3
				c0.1,0.1,0.2,0.2,0.3,0.3c0.1,0.1,0.1,0.3,0.1,0.5c0,0.1,0,0.3-0.1,0.4c0,0.1-0.1,0.2-0.2,0.3c-0.1,0.1-0.2,0.1-0.3,0.2
				c-0.1,0-0.3,0.1-0.4,0.1h-1v-3.2L58.8,59.5L58.8,59.5z"/>
			<polygon class="st0" points="64.4,62.7 64.4,60.2 62.8,62.7 62.3,62.7 62.3,59.5 62.7,59.5 62.7,62 64.4,59.5 64.9,59.5 
				64.9,62.7 			"/>
			<polygon class="st0" points="69.5,59.5 69.5,59.9 68.5,59.9 68.5,62.7 68.1,62.7 68.1,59.9 67.1,59.9 67.1,59.5 			"/>
			<polygon class="st0" points="73.8,62.7 73.8,60.2 72.1,62.7 71.6,62.7 71.6,59.5 72.1,59.5 72.1,62 73.8,59.5 74.2,59.5 
				74.2,62.7 			"/>
			<path class="st0" d="M24.4,61.1c0-0.1,0-0.2-0.1-0.3c0-0.1-0.1-0.2-0.2-0.3c-0.1-0.1-0.2-0.1-0.3-0.2c-0.1,0-0.3-0.1-0.4-0.1v1.7
				c0.1,0,0.3,0,0.4-0.1c0.1,0,0.2-0.1,0.3-0.2c0.1-0.1,0.2-0.2,0.2-0.3C24.3,61.3,24.4,61.2,24.4,61.1L24.4,61.1z M22,61.1
				c0,0.1,0,0.2,0.1,0.3c0,0.1,0.1,0.2,0.2,0.3c0.1,0.1,0.2,0.1,0.3,0.2c0.1,0,0.3,0.1,0.4,0.1v-1.7c-0.1,0-0.3,0-0.4,0.1
				c-0.1,0-0.2,0.1-0.3,0.2c-0.1,0.1-0.2,0.2-0.2,0.3C22.1,60.8,22,60.9,22,61.1L22,61.1z M23,62.3c-0.2,0-0.4,0-0.5-0.1
				c-0.2,0-0.3-0.1-0.5-0.2c-0.4-0.4-0.5-0.9-0.3-1.4c0.1-0.2,0.2-0.3,0.3-0.4c0.1-0.1,0.3-0.2,0.4-0.3c0.2-0.1,0.4-0.1,0.5-0.1
				v-0.3h0.4v0.3c0.2,0,0.4,0,0.5,0.1c0.2,0.1,0.3,0.1,0.4,0.3c0.5,0.5,0.5,1.3,0.1,1.8c0,0,0,0-0.1,0.1c-0.1,0.1-0.3,0.2-0.4,0.3
				c-0.2,0.1-0.4,0.1-0.5,0.1v0.4H23L23,62.3L23,62.3z"/>
			<path class="st0" d="M28.4,59.9c-0.1,0-0.3,0-0.4,0.1c-0.1,0.1-0.3,0.1-0.4,0.3c-0.1,0.1-0.2,0.2-0.3,0.4c-0.1,0.3-0.1,0.7,0,1
				c0.1,0.1,0.1,0.3,0.3,0.4c0.1,0.1,0.2,0.2,0.4,0.2c0.1,0.1,0.3,0.1,0.5,0.1c0.2,0,0.3,0,0.5-0.1c0.1-0.1,0.3-0.1,0.4-0.2
				c0.1-0.1,0.2-0.2,0.3-0.4c0.1-0.2,0.1-0.3,0.1-0.5c0-0.2,0-0.3-0.1-0.5c-0.1-0.1-0.1-0.3-0.2-0.4c-0.1-0.1-0.2-0.2-0.4-0.3
				C28.8,59.9,28.6,59.9,28.4,59.9z M29,59.6c0.2,0.1,0.4,0.2,0.5,0.3c0.1,0.1,0.3,0.3,0.3,0.5c0.2,0.4,0.2,0.9,0,1.3
				c-0.1,0.2-0.2,0.4-0.3,0.5c-0.1,0.1-0.3,0.3-0.5,0.3c-0.2,0.1-0.4,0.1-0.6,0.1c-0.2,0-0.4,0-0.6-0.1c-0.4-0.2-0.7-0.5-0.9-0.9
				c-0.1-0.2-0.1-0.4-0.1-0.7c0-0.2,0-0.4,0.1-0.7c0.1-0.2,0.2-0.4,0.3-0.5c0.1-0.1,0.3-0.3,0.5-0.3C28.2,59.4,28.6,59.4,29,59.6
				L29,59.6z"/>
			<path class="st0" d="M77.4,59.9c-0.1,0-0.1,0-0.2,0c-0.1,0-0.1,0.1-0.2,0.1c0,0-0.1,0.1-0.1,0.2c0,0.1,0,0.1,0,0.2
				c0,0.1,0,0.3,0.1,0.3c0.1,0.1,0.2,0.1,0.3,0.1H78V60L77.4,59.9z M78,62.7v-1.3h-0.3L77,62.7h-0.5l0.8-1.4
				c-0.4-0.1-0.7-0.5-0.6-0.9c0-0.1,0-0.3,0.1-0.4c0.1-0.1,0.1-0.2,0.2-0.3c0.1-0.1,0.2-0.1,0.3-0.2c0.1,0,0.2-0.1,0.3-0.1h0.9v3.2
				L78,62.7z"/>
			<path class="st0" d="M22.2,45h0.2c1.3-0.1,2.5,0.9,2.6,2.2c0,0.1,0,0.2,0,0.2c0,0.9-0.7,1.7-1.7,1.8c0,0-0.1,0-0.1,0
				c-0.4,0-0.8-0.1-1.1-0.2V45z M23.4,49.7c0.7,0,1.4-0.2,1.9-0.7c0.5-0.4,0.7-1.1,0.7-1.7c0-1.8-1.5-2.8-3.7-2.8c-0.7,0-1.3,0-2,0
				h-0.6v0.4h0.8c0.4,0,0.4,0.1,0.5,0.2c0.2,0.6,0.2,1.2,0.2,1.9v4.9c0,1.1,0.1,1.7-0.8,1.7h-0.7V54h0.5c0.6,0,0.9-0.1,1.4-0.1
				s1,0.1,1.5,0.1H24v-0.4c-0.3,0-0.8,0-1.1,0c-0.2,0-0.4-0.1-0.6-0.3c-0.2-0.4-0.2-0.9-0.2-1.4v-2.4C22.6,49.7,23,49.7,23.4,49.7"
				/>
			<path class="st0" d="M30,50.1l1.4-3.7c0.5,1.2,1,2.5,1.6,3.7H30z M33.7,53.6h-0.8v0.4h0.4c0.6,0,0.9-0.1,1.5-0.1s1,0.1,1.5,0.1
				h0.4v-0.4h-0.6c-0.8,0-0.8-0.4-1.2-1.2c-1.1-2.6-2.2-5.2-3.3-7.8c-0.3,0-0.5,0-0.8,0s-0.9-0.1-1.6,0v0.4h1.1
				c0.3,0,0.5,0.2,0.6,0.5l0.1,0.3c-0.9,2.2-1.6,4.3-2.5,6.5c-0.4,0.9-0.6,1.3-1.1,1.3h-0.7v0.4H27c0.4,0,1-0.1,1.3-0.1
				s0.8,0.1,1.2,0.1H30v-0.4h-0.6c-0.4,0-0.6-0.3-0.4-0.9s0.5-1.4,0.8-2.1h3.3c0.3,0.8,0.7,1.5,1,2.3C34.3,53.2,34.2,53.6,33.7,53.6
				"/>
			<path class="st0" d="M13.9,49.1c1.6,0,3.1,0.9,3.1,2.7c0.1,0.9-0.6,1.8-1.5,1.9c-0.1,0-0.3,0-0.4,0c-0.5,0-1-0.1-1.4-0.4v-4.2
				L13.9,49.1z M12.6,50.2c0,0.7,0,1.4,0,2.2s0,1.1-0.4,1.2c-0.1,0-0.7,0-0.7,0v0.4h0.8c0.3,0,0.5-0.1,0.9-0.1
				c0.6,0,1.2,0.2,1.9,0.2c0.6,0,1.1-0.1,1.6-0.3c0.9-0.4,1.4-1.3,1.4-2.2c-0.1-1-0.6-1.8-1.5-2.2c-0.8-0.3-1.6-0.5-2.5-0.5h-0.4
				v-3.7h1.2c0.8,0,1.1,0,1.5,0.3c0.3,0.3,0.5,0.7,0.5,1.2l0.4-0.1c-0.2-0.6-0.3-1.2-0.4-1.8c-1.1,0-2.3,0-3.4,0
				c-0.7,0-1.4,0-2.1-0.1v0.4h0.6c0.2,0,0.5,0.1,0.6,0.3c0.1,1,0.2,1.9,0.1,2.9L12.6,50.2z"/>
			<path class="st0" d="M75.6,45h0.2c1.3-0.1,2.5,0.9,2.6,2.2c0,0.1,0,0.2,0,0.2c0,0.9-0.7,1.7-1.6,1.7c0,0-0.1,0-0.1,0
				c-0.4,0-0.8,0-1.1-0.2V45z M76.8,49.7c0.7,0,1.4-0.2,1.9-0.7c0.5-0.4,0.7-1.1,0.7-1.7c0-1.8-1.5-2.8-3.7-2.8c-0.7,0-1.3,0-2,0
				h-0.6v0.4h0.6c0.2,0,0.5,0,0.7,0.2c0.2,0.6,0.2,1.2,0.2,1.9v4.9c0,1.1,0,1.7-0.9,1.7h-0.6V54h0.5c0.6,0,0.9-0.1,1.4-0.1
				s1,0.1,1.5,0.1h0.8v-0.4c-0.3,0-0.7,0-1,0c-0.2,0-0.5-0.1-0.6-0.3c-0.2-0.4-0.2-0.9-0.2-1.4v-2.4C76,49.7,76.4,49.7,76.8,49.7"/>
			<path class="st0" d="M86.2,53.6c-2.3,0.1-4.3-1.7-4.4-4c0,0,0,0,0,0c-0.2-2.5,1.2-4.8,4.3-4.8c1.9,0,2.3,1.2,2.5,2.3L89,47
				c-0.2-0.8-0.3-1.5-0.4-2.3c-0.9-0.2-1.8-0.3-2.7-0.3c-3.2,0-5.2,2.1-5.2,4.8s1.8,4.8,5.5,4.8c1,0,2-0.2,2.8-0.7
				c0.1-0.1,0.2-0.3,0.2-0.5c0-0.3,0.1-0.9,0.1-1.3H89C88.8,52.9,87.7,53.6,86.2,53.6"/>
			<path class="st0" d="M95.3,53.7c-2.1,0-3.5-1.7-3.7-4.1s1.1-4.8,3.5-4.8c2,0,3.5,1.8,3.7,4.1C99.1,51.5,97.7,53.7,95.3,53.7
				 M95.1,44.4c-2.7,0-4.8,2.2-4.7,4.9s2.2,4.8,4.9,4.7c2.6,0,4.7-2.2,4.7-4.8C100,46.6,97.8,44.4,95.1,44.4
				C95.2,44.4,95.1,44.4,95.1,44.4"/>
			<path class="st0" d="M67.5,44.8c2,0,3.5,1.8,3.7,4.1c0.2,2.6-1.1,4.8-3.6,4.8c-2.1,0-3.5-1.7-3.7-4.1S65,44.8,67.5,44.8
				 M62.8,49.5c0.1,2.7,2.3,4.8,4.9,4.7c2.7-0.1,4.8-2.3,4.7-4.9l0,0c0-2.7-2.2-4.8-4.8-4.8c0,0-0.1,0-0.1,0c-2.6,0-4.7,2-4.7,4.6
				h-1.9v-2.4c0-0.5,0-1,0.2-1.5c0.1-0.1,0.3-0.2,0.6-0.2h0.5v-0.4c-0.6,0-1,0.1-1.8,0.1s-1.2-0.1-1.8-0.1v0.4h0.6
				c0.2,0,0.4,0.1,0.5,0.2c0.1,0.5,0.2,1,0.2,1.5v5.3c0,0.5,0,1-0.2,1.5c-0.1,0.1-0.2,0.2-0.5,0.2h-0.6v0.4h0.3
				c0.6,0,0.9-0.1,1.4-0.1s1,0.1,1.5,0.1h0.3v-0.4h-0.5c-0.3,0-0.5-0.1-0.6-0.2c-0.1-0.5-0.2-1-0.2-1.5v-2.4H62.8z"/>
			<path class="st0" d="M45.8,44.9v-0.4h-0.4c-0.5,0-0.8,0.1-1.3,0.1s-0.7-0.1-1-0.1h-0.7v0.4h0.7c0.7,0,0.6,0.5,0.4,1
				c-0.7,1.6-1.4,2.9-2.1,4.4c-0.8-1.6-1.5-3-2.4-4.7c-0.3-0.5,0-0.7,0.2-0.7H40v-0.4h-0.6c-0.4,0-0.9,0.1-1.3,0.1s-0.9-0.1-1.3-0.1
				h-0.6v0.4h0.7c0.4,0,0.7,0.1,0.9,0.5l3.1,6.1l-0.5,0.9c-0.4,0.7-0.8,1.2-1.6,1.2h-0.6v0.4c0.5,0,1.1,0,1.4,0s0.5,0,0.8,0
				c0.6-1.5,1.3-3,2-4.5c0.3-0.7,0.8-1.7,1.8-3.8c0.2-0.3,0.4-0.7,0.8-0.7L45.8,44.9z"/>
			<path class="st0" d="M46.4,49.4c0,0.4,0.3,0.7,0.7,0.7c0.4,0,0.7-0.3,0.7-0.7c0-0.4-0.3-0.7-0.7-0.7C46.7,48.7,46.4,49,46.4,49.4
				"/>
			<path class="st0" d="M49.8,53.5l2.7-7.1l3,7.1H49.8z M56.5,53.5l-3.8-8.9c-0.3,0-0.4,0.1-0.8,0.1s-1.2,0-1.6-0.1v0.4h1.1
				c0.3,0,0.5,0.2,0.6,0.4l0.2,0.4l-3,7.7h-1.1c0,0.5,0,1.1-0.1,1.8h0.5c0-0.3,0-0.7,0.2-1c0.2-0.3,0.7-0.3,1-0.3h5.5
				c0.5-0.1,1.1,0,1.6,0.1c0.2,0.1,0.3,0.5,0.3,1.2h0.4c0-0.5,0-0.8,0-1.8L56.5,53.5z"/>
			<path class="st0" d="M3.2,50.1l1.4-3.7c0.5,1.2,1,2.5,1.6,3.7H3.2z M9.4,53.6c-0.8,0-0.8-0.4-1.1-1.2c-1.1-2.6-2.2-5.2-3.3-7.8
				c-0.3,0-0.5,0-0.8,0s-0.9-0.1-1.6,0v0.4h1.1c0.3,0,0.5,0.2,0.6,0.5l0.1,0.3C3.5,48,2.7,50,1.8,52.3c-0.4,0.9-0.6,1.3-1.1,1.3H0
				v0.4h0.2c0.4,0,1-0.1,1.3-0.1s0.8,0.1,1.2,0.1h0.5v-0.4H2.6c-0.4,0-0.6-0.3-0.4-0.9s0.5-1.4,0.8-2.1h3.3c0.3,0.8,0.7,1.5,1,2.3
				c0.2,0.4,0.1,0.8-0.4,0.8H6.2v0.4h0.4c0.6,0,0.9-0.1,1.5-0.1s1.1,0.1,1.6,0.1H10v-0.4L9.4,53.6L9.4,53.6z"/>
			<path class="st0" d="M74.8,35.5C74,35.2,73.1,35,72.3,35h-0.4v-2.8l0,0c0-0.3,0-0.6,0.2-0.9c0.1-0.1,0.3-0.2,0.6-0.2h0.5v-0.4
				c-0.6,0-1,0.1-1.8,0.1s-1.2-0.1-1.8-0.1v0.4h0.6c0.2,0,0.4,0.1,0.5,0.2c0.1,0.2,0.1,0.4,0.1,0.6c0,0.4,0.1,4.4,0.1,4.4
				c0,0.7,0,1.4,0,2.2s0,1.1-0.4,1.2c-0.2,0-0.7,0-0.7,0v0.4h0.8c0.3,0,0.5-0.1,0.9-0.1c0.6,0,1.2,0.2,1.9,0.2
				c0.6,0,1.1-0.1,1.6-0.3c0.9-0.4,1.4-1.3,1.4-2.2C76.2,36.7,75.7,35.9,74.8,35.5z M73.3,39.8c-0.5,0-1-0.1-1.4-0.4v-4.2h0.3
				c1.6,0,3.1,0.9,3.1,2.7c0.1,0.9-0.6,1.8-1.5,1.9C73.6,39.9,73.4,39.9,73.3,39.8L73.3,39.8z"/>
			<path class="st0" d="M67.1,31.4c0.1-0.2,0.3-0.2,0.5-0.2h0.6v-0.4c-0.6,0-1,0.1-1.8,0.1s-1.2-0.1-1.8-0.1v0.4h0.5
				c0.3,0,0.5,0.1,0.6,0.2c0.1,0.5,0.2,1,0.2,1.5v2.4h-5.3v-2.4c0-0.5,0-1,0.2-1.5c0.1-0.1,0.3-0.2,0.6-0.2h0.5v-0.4
				c-0.6,0-1,0.1-1.8,0.1s-1.2-0.1-1.8-0.1v0.4h0.6c0.2,0,0.4,0.1,0.5,0.2c0.1,0.5,0.2,1,0.2,1.5v5.3c0,0.5,0,1-0.2,1.5
				c-0.1,0.1-0.2,0.2-0.5,0.2h-0.6v0.4h0.3c0.6,0,0.9-0.1,1.4-0.1s1,0.1,1.5,0.1h0.3v-0.4h-0.5c-0.3,0-0.5-0.1-0.6-0.2
				c-0.1-0.5-0.2-1-0.2-1.5v-2.4h5.3v2.4c0,0.5,0,1-0.2,1.5c-0.1,0.1-0.3,0.2-0.6,0.2h-0.5v0.4h0.3c0.6,0,0.9-0.1,1.5-0.1
				s0.9,0.1,1.4,0.1h0.3v-0.4h-0.6c-0.3,0-0.4-0.1-0.5-0.2c-0.1-0.5-0.2-1-0.2-1.5v-5.2C66.9,32.3,67,31.8,67.1,31.4z"/>
			<path class="st0" d="M54.9,34.7c0.4-0.2,0.8-0.5,1.2-0.9c0.2-0.3,0.4-0.6,0.3-1c0-0.6-0.3-1.2-0.7-1.5c-0.6-0.5-1.4-0.7-2.2-0.6
				c-0.6,0-1.1,0.1-1.6,0.2c-0.3,0.1-0.6,0.2-0.9,0.4c-0.1,0.4-0.1,0.7-0.1,1.1c0,0.1,0,0.2,0,0.3H51h0.1c0.2-0.5,0.5-1,1-1.3
				c0.4-0.3,0.8-0.4,1.3-0.4c0.5,0,1,0.1,1.3,0.5c0.3,0.4,0.5,0.8,0.5,1.3c0,0.5-0.2,1-0.6,1.4c-0.6,0.5-1.5,0.7-2.3,0.6v0.4h0.6
				h0.7c0.6,0,1.2,0.2,1.6,0.5c0.4,0.4,0.7,1,0.6,1.6c0,0.7-0.2,1.3-0.7,1.8c-0.4,0.5-1.1,0.7-1.7,0.7l0,0c-0.5,0-0.9-0.1-1.3-0.3
				c-0.3-0.2-0.6-0.4-0.8-0.7c-0.2-0.2-0.3-0.5-0.5-0.8c-0.2-0.3-0.3-0.5-0.4-0.5s-0.2,0.1-0.2,0.2l0.1,1.2c0,0.1,0,0.2,0,0.3
				c0,0.1,0.1,0.1,0.1,0.2c0.1,0.1,0.2,0.1,0.3,0.2c0.8,0.4,1.6,0.6,2.5,0.6l0,0c1,0,1.9-0.3,2.7-0.9c0.7-0.5,1.1-1.2,1.1-2.1
				C57.1,36,56.3,35.1,54.9,34.7z"/>
			<path class="st0" d="M37.9,39.8c-0.4,0-0.8-0.1-1.1-0.3c-0.4-0.3-0.7-0.6-1-1l0,0l0,0l0,0L35.5,38l0,0l-1.9-2.6l-0.7-0.9
				c0.1-0.1,0.1-0.2,0.2-0.3l1.7-1.9c0.1-0.2,0.6-0.5,0.6-0.6l0,0c0.4-0.4,0.9-0.6,1.4-0.6h0.4v-0.4h-0.4c-0.4,0-0.7,0.1-1.2,0.1
				s-0.8-0.1-1.2-0.1h-0.5v0.4h0.7c0.2,0,0.3,0.4,0.1,0.6l0,0c-0.1,0.1-0.5,0.6-0.5,0.7l-2.3,2.8c-0.1,0.1-0.2,0.1-0.2,0.1l0,0v-2.6
				c0-0.5,0-1,0.2-1.5c0.1-0.1,0.3-0.2,0.6-0.2h0.5v-0.4c-0.6,0-1,0.1-1.8,0.1s-1.2-0.1-1.8-0.1v0.4h0.6c0.2,0,0.4,0.1,0.5,0.2
				c0.1,0.5,0.2,1,0.2,1.5v2.5l0,0c0,0-0.1,0-0.2-0.1l-2.3-2.8c-0.1-0.1-0.5-0.6-0.5-0.7l0,0c-0.2-0.3-0.1-0.6,0.1-0.6h0.7v-0.4
				h-0.5c-0.4,0-0.8,0.1-1.2,0.1s-0.8-0.1-1.2-0.1H25v0.4h0.4c0.5,0,1,0.2,1.4,0.6l0,0c0,0,0.5,0.4,0.6,0.6l1.7,1.9
				c0.1,0.1,0.1,0.2,0.2,0.3l-0.6,0.9l-1.9,2.6l0,0l-0.3,0.4l0,0l0,0l0,0c-0.3,0.4-0.6,0.7-1,1c-0.3,0.2-0.7,0.3-1.1,0.3h-0.6V40
				c0.5,0,1.1,0,1.4,0s1.1,0,1.4,0c0.3-0.5,0.6-1.1,1-1.6l0,0l0.2-0.3l0,0l2-2.8c0.1-0.1,0.2-0.2,0.2-0.2s0.1,0,0.2,0.2
				c0.2,0.2,0.3,0.4,0.4,0.7l0,0V38c0,0.5,0,1-0.1,1.5c-0.1,0.1-0.2,0.2-0.5,0.2h-0.6V40h0.3c0.6,0,0.9-0.1,1.4-0.1s1,0.1,1.5,0.1
				h0.3v-0.4h-0.5c-0.3,0-0.5-0.1-0.6-0.2c-0.1-0.5-0.2-1-0.2-1.5v-1.8c0.1-0.3,0.2-0.5,0.4-0.7c0.1-0.1,0.1-0.2,0.2-0.2
				s0.1,0.1,0.2,0.2l2,2.8l0,0l0.2,0.3l0,0c0.4,0.5,0.7,1,1,1.6c0.3,0,1.1-0.1,1.4,0s1,0,1.4,0v-0.4L37.9,39.8z"/>
			<path class="st0" d="M47.8,31.4c0.1-0.2,0.3-0.2,0.5-0.2H49v-0.4c-0.6,0-1,0.1-1.8,0.1s-1.2-0.1-1.8-0.1v0.4H46
				c0.3,0,0.5,0.1,0.6,0.2c0.1,0.2,0.1,0.4,0.1,0.5c-0.5,0.6-1.1,1.3-1.7,1.9l-1.3,1.5l-1,1.1L41.3,38v-5.2c0-0.5,0-1,0.2-1.5
				c0.1-0.1,0.3-0.2,0.6-0.2h0.5v-0.4c-0.6,0-1,0.1-1.8,0.1s-1.2-0.1-1.8-0.1v0.4h0.6c0.2,0,0.4,0.1,0.5,0.2c0.1,0.5,0.2,1,0.2,1.5
				v5.3c0,0.5,0,1-0.2,1.5c-0.1,0.1-0.2,0.2-0.5,0.2H39v0.4h0.3c0.6,0,0.9-0.1,1.4-0.1s1,0.1,1.5,0.1h0.3v-0.4H42
				c-0.3,0-0.5-0.1-0.6-0.2c-0.1-0.3-0.2-0.7-0.2-1l0.6-0.8c0.4-0.5,0.7-0.9,1.1-1.3c0.4-0.4,0.6-0.7,0.9-1l2.7-3.1
				c0,0.1,0,0.3,0,0.4V38c0,0.5,0,1-0.2,1.5c-0.1,0.1-0.3,0.2-0.6,0.2h-0.5v0.4h0.3c0.5,0,0.9-0.1,1.5-0.1s0.9,0.1,1.4,0.1H49v-0.4
				h-0.6c-0.3,0-0.4-0.1-0.5-0.2c-0.1-0.5-0.2-1-0.2-1.5v-5.2C47.7,32.3,47.7,31.8,47.8,31.4z"/>
			<path class="st0" d="M41.9,21.3c5.9-0.4,11.6-2,17.5-1.4c-4,5.2-11.5,6.1-16.7,2.1C42.4,21.8,42.2,21.5,41.9,21.3 M38.4,15.4
				c3.5,0.4,6.7,2.1,9,4.6c-2,0.3-4.1,0.5-6.1,0.6C39.9,19.2,38.9,17.4,38.4,15.4 M39.3,7.4c2.9,1.2,7.2,0.9,10,2.6l0,0
				c0.6,0.4,1.1,0.8,1.6,1.4c-4.2-0.6-8.6-0.9-12.7,0.2C38.3,10.2,38.7,8.7,39.3,7.4 M50,0.7c3.2,0,6.3,1.3,8.5,3.6
				c-0.2,0-0.5,0-0.7,0c-1.7,0.4-3.4,0.5-5.1,0.6c-2.3-0.2-4.6,0.1-6.9,0.6c-1.8,0.6-3.6,1.2-5.4,1.6l0,0c-0.3-0.1-0.5-0.2-0.8-0.3
				C41.7,3,45.7,0.7,50,0.7 M61.8,14.4c-0.3,1.8-0.9,3.4-1.9,4.9c-1.7-0.2-3.5-0.2-5.3-0.1C55.9,16.4,58.7,14.5,61.8,14.4 M51,10.6
				c0.3,0,0.6-0.1,0.8-0.2l0.2-0.1c0.2-0.1,0.4-0.2,0.6-0.2h0.2c0.3,0,0.6,0.1,0.8,0.3c0.7,0.4,1.5,0.4,2.1,0c0.5-0.3,1.1-0.3,1.6,0
				c0.7,0.4,1.5,0.4,2.1,0c0.5-0.3,1.1-0.3,1.6,0c0.2,0.1,0.3,0.2,0.5,0.3c0,0.3,0.1,0.6,0.1,0.9l-0.3-0.1c-0.7-0.4-1.5-0.4-2.1,0
				c-0.5,0.3-1.1,0.3-1.6,0c-0.7-0.4-1.5-0.4-2.1,0c-0.5,0.3-1.1,0.3-1.6,0c-0.7-0.4-1.5-0.4-2.1,0c-0.1,0.1-0.2,0.1-0.3,0.1
				c-0.2-0.3-0.4-0.6-0.7-0.8L51,10.6 M61.8,13.7c-0.7-0.1-1.4-0.3-2.1-0.6c0.2-0.2,0.5-0.2,0.8-0.2c0.3,0,0.6,0.1,0.8,0.3
				c0.2,0.1,0.4,0.2,0.5,0.3C61.8,13.5,61.8,13.6,61.8,13.7 M61.9,12.6c0,0.1,0,0.2,0,0.3c-0.1,0-0.2-0.1-0.3-0.2
				c-0.7-0.4-1.5-0.4-2.1,0c-0.2,0.1-0.3,0.2-0.5,0.2l-1.2-0.3c-0.3-0.2-0.6-0.3-1-0.3h-0.3c-1.4-0.3-2.8-0.5-4.1-0.7h-0.1
				c0.2-0.1,0.5-0.2,0.7-0.2c0.3,0,0.6,0.1,0.8,0.3c0.7,0.4,1.5,0.4,2.1,0c0.5-0.3,1.1-0.3,1.6,0c0.7,0.4,1.5,0.4,2.1,0
				c0.5-0.3,1.1-0.3,1.6,0c0.2,0.1,0.4,0.2,0.6,0.3C61.9,12.2,61.9,12.4,61.9,12.6 M41.7,7.5c1.2-0.3,2.4-0.8,3.5-1.2
				c2.2-0.7,4.5-1,6.8-0.8c1.6,0.1,3.2,0,4.8-0.3c0.7-0.3,1.5-0.3,2.3-0.2c1.2,1.4,2,3.1,2.4,4.9l-0.2-0.1c-0.7-0.4-1.5-0.4-2.1,0
				c-0.5,0.3-1.1,0.3-1.6,0c-0.7-0.4-1.5-0.4-2.1,0c-0.5,0.3-1.1,0.3-1.6,0c-0.3-0.2-0.7-0.3-1.1-0.3l0,0c-0.1,0-0.2,0-0.4,0
				c-0.3,0-0.5,0.1-0.7,0.3l-0.1,0.1C51.4,9.9,51.2,10,51,10h-0.1c-0.3,0-0.6-0.1-0.8-0.3l-0.1,0C47.7,8.2,44.5,8.1,41.7,7.5
				 M48.2,20c-2.5-2.9-6.1-4.8-9.9-5.2c-0.1-0.7-0.2-1.4-0.2-2.2c0-0.1,0-0.2,0-0.3c5.1-1.4,10.8-0.7,15.9,0.2
				c2.1,0.4,4.1,0.8,6.2,1.3l0.3,0.1c-3,0.5-5.4,2.6-6.5,5.4C52,19.4,50.1,19.7,48.2,20 M62.6,12c0-0.2,0-0.3,0-0.5
				s-0.1-0.6-0.1-0.9s-0.1-0.3-0.1-0.5c-0.4-1.7-1.1-3.4-2.1-4.8c-0.2-0.3-0.4-0.5-0.6-0.8C57.2,1.6,53.7,0,50,0l0,0
				c-4.7,0-9,2.6-11.2,6.8v0.1c-0.8,1.6-1.2,3.3-1.3,5c0,0.1,0,0.2,0,0.4s0,0.2,0,0.3c0,0.7,0.1,1.4,0.2,2.1l0,0
				c0,0.2,0.1,0.4,0.1,0.6l0,0c0.4,2,1.4,3.9,2.7,5.4l0,0c0.2,0.2,0.4,0.4,0.6,0.6l0,0c2.4,2.4,5.6,3.8,9,3.8l0,0
				c4,0,7.7-1.9,10.1-5.1c0.1-0.2,0.3-0.4,0.4-0.6c1-1.5,1.6-3.2,1.9-5.1c0-0.2,0-0.4,0.1-0.6c0-0.1,0-0.2,0-0.3s0-0.3,0-0.5
				c0-0.1,0-0.2,0-0.3S62.5,12.2,62.6,12"/>
		</g>
	</g>
</g>
</svg>
