<svg xmlns="http://www.w3.org/2000/svg" viewBox="0 0 322.43 91.76">
  <defs>
    <style>
      .cls-1 {
        fill: #e52a25;
      }
    </style>
  </defs>
  <title>logo</title>
  <g id="Layer_2" data-name="Layer 2">
    <g id="ENG_HORIZ" data-name="ENG HORIZ">
      <g>
        <g id="Shape_1_copy_2" data-name="Shape 1 copy 2">
          <path class="cls-1" d="M45.88,0A45.88,45.88,0,1,0,91.76,45.88,45.88,45.88,0,0,0,45.88,0ZM72.79,71.44a37.9,37.9,0,0,1-53.6,0c-14.8-14.8-12.72-35.82-2.09-45,6.6-5.67,13.47-5.7,18.05-2.72C39.9,19.95,54.61,12,69.81,20.52,86.47,29.82,87.59,56.64,72.79,71.44Zm3.28-36.37c-6.38-11.59-22.15-12.58-33-6.32C24.88,39.18,28,58.61,28,58.61s-5.24-8.5-3.42-17.75a28.51,28.51,0,0,1,8-14.64C31.33,24.8,25,22.71,19.68,28c-12,12-5.43,44.61,25,45.83C69.69,74.83,84.55,50.49,76.07,35.07ZM57.32,61.63a14.66,14.66,0,0,1-9.61.46,12.86,12.86,0,0,0,6.91-.82c7-2.74,12.23-10.27,11.58-16.83-.55-5.48-5-8.54-10.55-7.82l.13,0c8.11-2.91,15,.33,15.46,7.25S65.43,58.72,57.32,61.63Z"/>
        </g>
        <g id="Shape_1" data-name="Shape 1">
          <path class="cls-1" d="M195.44,67.62h14.23V16.79H195.44ZM215.63,31h14.23V16.79H215.63Zm0,36.67h14.23V37.08H215.63Zm58.68-35c-4.21-3.7-11-3.92-17.14-3.92s-12.93.22-17.14,3.92c-4.79,4.29-5.08,11.91-5.08,15.76s.29,11.47,5.08,15.76c4.21,3.7,11,3.92,17.14,3.92s12.92-.22,17.14-3.92c4.79-4.28,5.08-11.91,5.08-15.76S279.1,36.91,274.31,32.62ZM263.42,55.13c-.66.95-2.4,2.62-6.25,2.62-4.36,0-6-2.18-6.32-2.62-.58-.8-1.38-2.54-1.38-6.75,0-4.5.87-6.17,1.38-6.9.73-.94,2.4-2.47,6.32-2.47s5.59,1.53,6.32,2.47,1.38,2.83,1.38,6.9C264.87,51.14,264.57,53.54,263.42,55.13Zm49.56-16v-10h-9.44c-3.77,0-10,.14-14.23,3.63s-4.58,8.86-4.58,12.56V67.62H299V49.25c0-2.18.22-5.08,1.89-7.33s4.43-2.76,7.19-2.76ZM129.45,55.23a3.06,3.06,0,0,1-.66,2.26,3,3,0,0,1-2.09.61h-1.79c-2.09,0-4.49-.5-5.87-2.65s-1-5-1-7.05-.41-4.26.91-6.41,4-3.2,7.14-3.2H143V29.11H120.5c-1,0-7.42.06-10.95,2.64-5,3.64-5.51,10.75-5.51,16.87,0,5.07.39,12.07,4.63,15.82,2.48,2.2,7.81,3.25,10.95,3.25h17.45a6.61,6.61,0,0,0,4.13-1.32,5.61,5.61,0,0,0,1.88-4.46V43.55H129.45ZM176.77,29H150.92v9.72h19.6c1.47,0,3.31.08,4.42,1.55a4.21,4.21,0,0,1,.74,2.58v.59H158.58c-2.28,0-4.79.07-6.92,1.7-3.09,2.36-3.39,6.48-3.39,9.87,0,3.09.15,8.25,3.17,11,2.06,1.92,4.71,2.06,7.14,2.06h23c2.21,0,4.79-.15,6.63-2.06s1.92-4.2,1.92-6.26V43.39c0-3.17-.44-7.81-3.68-11C184.73,30.72,181.56,29,176.77,29Zm-1.1,26.6a2.62,2.62,0,0,1-.87,2.27,4.53,4.53,0,0,1-2.53.61h-8.91a3.84,3.84,0,0,1-2.36-.78,2.6,2.6,0,0,1-.7-2,2.88,2.88,0,0,1,.7-2.18,4,4,0,0,1,2.53-.79h12.14Zm137.3-7a9.46,9.46,0,1,0,9.46,9.46A9.46,9.46,0,0,0,313,48.64Zm0,17.24a7.78,7.78,0,1,1,7.78-7.78A7.78,7.78,0,0,1,313,65.88Zm.94-6.58h1.2a1.78,1.78,0,0,0,1.76-1,4.27,4.27,0,0,0,.4-2.11,3.45,3.45,0,0,0-.47-2.05,2.13,2.13,0,0,0-2-.85h-4.42a1.35,1.35,0,0,0-1.51,1.59v7.74h1.76V55.39a.58.58,0,0,1,.19-.52.6.6,0,0,1,.47-.15h2.85a1.35,1.35,0,0,1,1,.28,1.8,1.8,0,0,1,.33,1.29,3,3,0,0,1-.21,1.28,1.05,1.05,0,0,1-1,.41h-1.76c-.51,0-.79.27-.79.64v.21a1.38,1.38,0,0,0,.44.79l3.07,3h2.21l-3.55-3.29Z"/>
        </g>
      </g>
    </g>
  </g>
</svg>
