<svg xmlns="http://www.w3.org/2000/svg" viewBox="0 0 40 39.99">
  <defs>
    <style>
      .cls-1 {
        fill: #333;
      }
    </style>
  </defs>
  <title>ai</title>
  <g id="Layer_2" data-name="Layer 2">
    <g id="Слой_1" data-name="Слой 1">
      <path class="cls-1" d="M14.91,21.58h4.88c-.84-2.86-1.67-5.5-2.48-8.18C16.52,16.1,15.72,18.73,14.91,21.58ZM39.08,0H.6C-.09,0,0,.15,0,.82V39.35c0,.67-.1.64.55.64H39.13c.64,0,.87,0,.87-.64V.87C40,.15,39.78,0,39.08,0ZM24.22,30.15c-.52,0-1,0-1.56,0s-.5-.13-.6-.45c-.48-1.57-1-3.13-1.47-4.69a.5.5,0,0,0-.58-.43q-2.63,0-5.26,0a.54.54,0,0,0-.64.46c-.45,1.56-.93,3.1-1.39,4.66a.52.52,0,0,1-.6.45c-1.05,0-2.11,0-3.26,0,.3-1,.58-1.86.87-2.75Q12.36,19.19,15,11a.58.58,0,0,1,.68-.49c1.23,0,2.47,0,3.7,0,.23,0,.39,0,.47.27C21.89,17.16,24,23.59,26,30c0,0,0,.18,0,.18H24.22Zm6.57,0H27V15.87h3.81Zm-2-16.21a1.9,1.9,0,0,1-2-1.93,1.94,1.94,0,0,1,2-2,1.94,1.94,0,1,1,0,3.88Z"/>
    </g>
  </g>
</svg>
