<svg xmlns="http://www.w3.org/2000/svg" viewBox="0 0 40 39.73">
  <defs>
    <style>
      .cls-1 {
        fill: #333;
      }
    </style>
  </defs>
  <title>github</title>
  <g id="Layer_2" data-name="Layer 2">
    <g id="Слой_1" data-name="Слой 1">
      <g>
        <g>
          <path class="cls-1" d="M20,0a13.37,13.37,0,0,0-4.22,26c.67.12.91-.29.91-.64s0-1.37,0-2.49c-3.72.81-4.5-1.58-4.5-1.58a3.54,3.54,0,0,0-1.48-2c-1.21-.83.09-.81.09-.81a2.81,2.81,0,0,1,2,1.38,2.84,2.84,0,0,0,3.89,1.11,2.85,2.85,0,0,1,.85-1.79c-3-.34-6.09-1.48-6.09-6.6a5.17,5.17,0,0,1,1.38-3.59A4.8,4.8,0,0,1,13,5.54s1.12-.36,3.68,1.37a12.67,12.67,0,0,1,6.69,0C25.9,5.18,27,5.54,27,5.54a4.8,4.8,0,0,1,.13,3.54,5.16,5.16,0,0,1,1.38,3.59c0,5.13-3.13,6.26-6.1,6.59a3.19,3.19,0,0,1,.91,2.48c0,1.79,0,3.23,0,3.67s.24.77.92.64A13.37,13.37,0,0,0,20,0Z"/>
          <path class="cls-1" d="M11.7,19.19c0,.07-.13.09-.23,0s-.15-.13-.12-.2.13-.09.23,0,.15.14.12.2Zm.54.6c-.06.06-.19,0-.27-.06s-.1-.22,0-.28.19,0,.27.06.11.22,0,.28Zm.53.77c-.08.06-.22,0-.3-.12s-.08-.26,0-.32.21,0,.3.11.08.26,0,.32Zm.72.74c-.07.08-.23.06-.34-.05a.26.26,0,0,1-.08-.34c.07-.08.23-.06.35.05s.15.26.07.34Zm1,.43c0,.1-.18.15-.33.11s-.25-.17-.22-.27.18-.15.34-.11.25.17.22.27Zm1.09.08c0,.11-.12.2-.28.2s-.29-.09-.29-.19.13-.2.29-.2S15.58,21.71,15.58,21.82Zm1-.17c0,.11-.09.22-.25.25s-.3,0-.32-.14.09-.22.25-.25.3,0,.32.15Z"/>
        </g>
        <path class="cls-1" d="M7.7,33.54H4.34a.16.16,0,0,0-.16.16v1.64a.16.16,0,0,0,.16.16H5.65v2a4,4,0,0,1-1.11.1c-1,0-2.3-.35-2.3-3.3S3.64,31,5,31a5.32,5.32,0,0,1,1.94.3.16.16,0,0,0,.19-.15l.37-1.59a.15.15,0,0,0-.06-.12,5.39,5.39,0,0,0-2.85-.52c-2.24,0-4.55,1-4.55,5.54s2.64,5.27,4.86,5.27a5.47,5.47,0,0,0,3-.79.14.14,0,0,0,.05-.12V33.7a.16.16,0,0,0-.16-.16Zm17.17-4.24H23a.16.16,0,0,0-.16.16h0v3.66h-3V29.46a.16.16,0,0,0-.16-.16H17.82a.16.16,0,0,0-.16.16h0v9.9a.16.16,0,0,0,.16.16h1.89a.16.16,0,0,0,.16-.16h0V35.13h3v4.24a.16.16,0,0,0,.16.16h1.9a.16.16,0,0,0,.16-.16h0v-9.9A.16.16,0,0,0,24.87,29.31Zm-14.82.23a1.23,1.23,0,1,0,1.22,1.23A1.23,1.23,0,0,0,10.06,29.53Zm.93,3H9.1a.18.18,0,0,0-.16.18v6.55c0,.19.12.25.28.25h1.7c.19,0,.23-.09.23-.25V32.71a.16.16,0,0,0-.16-.16h0Zm21.24,0H30.34a.16.16,0,0,0-.16.16h0v4.86a2.12,2.12,0,0,1-1.15.35c-.68,0-.86-.31-.86-1V32.72a.16.16,0,0,0-.16-.16H26.11a.16.16,0,0,0-.16.16v4.56c0,2,1.1,2.45,2.61,2.45A4.4,4.4,0,0,0,30.8,39a3.83,3.83,0,0,0,.07.4.17.17,0,0,0,.14.09h1.21a.16.16,0,0,0,.16-.16h0V32.72a.16.16,0,0,0-.16-.16Zm5.13-.22a3.53,3.53,0,0,0-1.79.48V29.46a.16.16,0,0,0-.16-.16h-1.9a.16.16,0,0,0-.16.16h0v9.9a.16.16,0,0,0,.16.16h1.32a.16.16,0,0,0,.14-.08A3.14,3.14,0,0,0,35,39a3.4,3.4,0,0,0,2.25.74c1.72,0,2.71-.87,2.71-3.93s-1.58-3.45-2.65-3.45Zm-.74,5.58a2.25,2.25,0,0,1-1.09-.32V34.47a2.51,2.51,0,0,1,1-.32c.68-.06,1.33.14,1.33,1.76s-.29,2-1.21,2Zm-20,0c-.08,0-.29,0-.51,0-.7,0-.93-.32-.93-.74V34.39h1.42a.16.16,0,0,0,.16-.16h0V32.71a.16.16,0,0,0-.16-.16H15.16V30.67c0-.07,0-.11-.12-.11H13.1c-.07,0-.12,0-.12.11v1.94l-1,.25a.16.16,0,0,0-.11.15v1.22a.16.16,0,0,0,.16.16h1v2.93c0,2.18,1.53,2.39,2.56,2.39a4.31,4.31,0,0,0,1.13-.19.15.15,0,0,0,.09-.14V38a.16.16,0,0,0-.16-.16Z"/>
      </g>
    </g>
  </g>
</svg>
