<svg xmlns="http://www.w3.org/2000/svg" viewBox="0 0 28.44 40">
  <defs>
    <style>
      .cls-1 {
        fill: #333;
      }
    </style>
  </defs>
  <title>html</title>
  <g id="Layer_2" data-name="Layer 2">
    <g id="Слой_1" data-name="Слой 1">
      <path class="cls-1" d="M0,8.12,2.59,36.9,14.2,40l11.65-3L28.44,8.12Zm23.06,6.55-.16,1.87-.07.86H9.2l.33,3.84h13l-.09.71-.84,9.25-.06.54-7.29,2h0L6.92,31.82l-.49-5.46H10l.25,2.71,4,1V30h0l4-.85.41-4.39H6.27l-.88-9.87-.09-1H23.14l-.09.79ZM2.68,0h1.8V1.78H6.13V0h1.8V5.38H6.13V3.58H4.48v1.8H2.68ZM10.3,1.79H8.71V0h5V1.79H12.1v3.6H10.3ZM14.47,0h1.88L17.5,1.89,18.65,0h1.88V5.38H18.74V2.72L17.5,4.63h0L16.23,2.72V5.38H14.47V0Zm7,0h1.8V3.6h2.53V5.38H21.43Z"/>
    </g>
  </g>
</svg>
