<svg xmlns="http://www.w3.org/2000/svg" viewBox="0 0 37.77 40">
  <defs>
    <style>
      .cls-1 {
        fill: #333;
      }
    </style>
  </defs>
  <title>jquery</title>
  <g id="Layer_2" data-name="Layer 2">
    <g id="Слой_1" data-name="Слой 1">
      <path class="cls-1" d="M13.64,25.42l.06,0,.11.05.43.2.09,0,.51.21L15,26l.48.18.06,0,.53.17.13,0a5.18,5.18,0,0,0,.55.16c12,2.18,15.43-7.19,15.43-7.19-2.92,3.8-8.09,4.8-13,3.69-.19,0-.37-.1-.55-.15l-.14,0-.53-.17-.07,0-.46-.17-.13-.05-.5-.21-.1,0-.42-.2-.12-.06-.33-.17-.22-.11-.39-.22-.13-.07-.51-.31L14.4,21,14,20.73l-.12-.08-.34-.25-.15-.12L13.12,20,13,19.93l-.39-.33,0,0-.41-.37L12,19.09l-.29-.29-.11-.11-.36-.38,0,0-.36-.41-.1-.11-.26-.32-.1-.12-.3-.4c-2.72-3.72-3.7-8.84-1.53-13L6.67,6.32c-2.47,3.55-2.16,8.18-.28,12l.14.27.09.17.05.1.1.18.18.31.1.17.21.33.09.14.3.44h0l.05.07.28.37.1.13.26.31.1.12.36.41h0v0l.36.38.12.12.29.28.12.11.4.36h0l.07.06.36.3.15.12.3.23.16.12.34.24.12.09,0,0,.33.22.14.09.51.31.14.08.38.21.21.11Zm1.21-12a6.28,6.28,0,0,0,.92,1.15l.4.42.11.1.41.38h0l.48.4.11.09.5.37h0l.23.15.11.07.37.23.05,0,.33.18L19,17l.23.12,0,0,.48.22.11,0,.39.16.17.06.36.13.16.05a4,4,0,0,0,.52.15c9.23,1.53,11.36-5.58,11.36-5.58-1.92,2.77-5.64,4.09-9.61,3.06l-.52-.15-.16-.05-.37-.13L22,15.07l-.39-.16-.11,0L21,14.64l-.24-.12-.14-.07-.31-.17-.07,0L19.89,14l-.11-.07-.24-.16-.5-.36-.11-.09A11.13,11.13,0,0,1,15.16,8a8.34,8.34,0,0,1,.65-6.69L14.35,3.32a8.6,8.6,0,0,0-.3,8.74,11.35,11.35,0,0,0,.79,1.32Zm9.73-3.18.23.08.1,0a2.9,2.9,0,0,0,.33.09c5.1,1,6.48-2.62,6.85-3.15C30.87,9,28.83,9.42,26.34,8.82c-.2,0-.41-.12-.6-.19a7.49,7.49,0,0,1-.72-.3,7.42,7.42,0,0,1-1.26-.77C21.52,5.87,20.13,2.63,21.59,0L20.8,1.09a5.38,5.38,0,0,0-.43,5.19,7.31,7.31,0,0,0,4.2,3.92ZM19.65,31.07H18.27a.18.18,0,0,0-.17.14l-.49,2.27-.49,2.27a.18.18,0,0,1-.17.14H16c-1,0-.86-.67-.66-1.59v0l0-.12v0l0-.24,0-.25.05-.26.22-1.09.22-1.09a.11.11,0,0,0-.11-.14H14.41a.18.18,0,0,0-.17.14l-.31,1.45-.3,1.45h0l0,.13c-.35,1.6-.26,3.13,1.65,3.18H18.3a.18.18,0,0,0,.17-.14l.65-3,.65-3A.11.11,0,0,0,19.65,31.07Zm-14.8,0H3.33a.18.18,0,0,0-.17.14L3,31.82l-.14.64A.11.11,0,0,0,3,32.6H4.51a.18.18,0,0,0,.17-.14l.14-.63L5,31.19A.11.11,0,0,0,4.85,31.05Zm-.44,2H2.88a.18.18,0,0,0-.17.14l-.21,1-.21,1-.06.27-.21,1-.21,1c0,.07,0,.2-.07.27s-.29.85-.77.84H.49a.18.18,0,0,0-.17.13l-.16.67L0,39.85A.11.11,0,0,0,.11,40H1.36c1.2,0,1.83-.66,2.24-2.58l.47-2.2.45-2.06A.11.11,0,0,0,4.41,33Zm28.17-.51-.06-.26L32.45,32l0-.14c-.12-.48-.49-.76-1.28-.76H27.49a.18.18,0,0,0-.17.14l-.06.27-.07.32,0,.09-.58,2.7-.55,2.56a.6.6,0,0,0,0,.2s.16.07.23.07h1.15a.72.72,0,0,0,.22,0s.1-.17.12-.24l.2-1,.21-1h0l0-.14.25-1.16.22-1a.18.18,0,0,1,.17-.14h3.63A.11.11,0,0,0,32.58,32.51Zm4.67-2.37H35.81a.3.3,0,0,0-.22.12L33,34c0,.06-.09.05-.11,0l-.19-.83a.18.18,0,0,0-.17-.14H30.9a.1.1,0,0,0-.1.13l.74,2.59a.61.61,0,0,1,0,.27l-.32,1.25a.1.1,0,0,0,.1.14H33a.19.19,0,0,0,.17-.14L33.46,36a.82.82,0,0,1,.12-.25l4.17-5.53c0-.06,0-.11-.06-.11ZM24.14,33.39h0a.17.17,0,0,1-.16.14H21.88a.09.09,0,0,1-.1-.11h0v0a1.31,1.31,0,0,1,1.37-.88C24,32.5,24.2,32.92,24.14,33.39ZM23.52,31c-2.69,0-3.32,1.63-3.68,3.28s-.33,3.25,2.45,3.25h2.55a.18.18,0,0,0,.17-.14l.11-.55,0-.11.13-.66a.11.11,0,0,0-.11-.14h-2.5c-1,0-1.29-.26-1.18-1h4a.16.16,0,0,0,.15-.1v0h0C26.23,32.48,26.06,31,23.52,31ZM10.83,33.38l0,.13h0l-.3,1.07-.3,1.07a.2.2,0,0,1-.18.13H8.41c-1.21,0-1.51-.95-1.21-2.34S8.07,31.13,9.27,31C10.9,30.92,11.22,32.06,10.83,33.38Zm1.1,2.32a17.9,17.9,0,0,0,.92-2.88,2.92,2.92,0,0,0-3.21-3.46c-2.72,0-3.9,2-4.35,4.08s.14,4,2.84,4h4.12a.19.19,0,0,0,.17-.14L12.78,36a.1.1,0,0,0-.1-.14H12a.09.09,0,0,1-.09-.1Zm13.45-1.22a.09.09,0,1,1-.09-.09A.09.09,0,0,1,25.37,34.48Z"/>
    </g>
  </g>
</svg>
