<svg xmlns="http://www.w3.org/2000/svg" viewBox="0 0 38.84 40">
  <defs>
    <style>
      .cls-1 {
        fill: #333;
      }
    </style>
  </defs>
  <title>wordpress</title>
  <g id="Layer_2" data-name="Layer 2">
    <g id="Слой_1" data-name="Слой 1">
      <path class="cls-1" d="M18,36.09c-.77-.07-1.55,0-2.33-.05-.08,0-.15.08-.23.13s.13.12.2.12a.49.49,0,0,1,.51.56c0,.71,0,1.43,0,2.14,0,.44-.25.63-.7.56a1.41,1.41,0,0,1-.64-.26c-.39-.31-.73-.68-1.12-1l.23-.09c.61-.23.88-.59.83-1.11a1.07,1.07,0,0,0-1-.94c-.76-.06-1.53,0-2.29-.06-.06,0-.12.07-.17.1s.11.14.18.14c.43,0,.54.29.54.65,0,.66,0,1.32,0,2,0,.36-.12.6-.52.64-.07,0-.13.08-.19.13s.16.11.24.12q.89,0,1.79,0c.08,0,.15-.08.23-.13l-.2-.13c-.15-.1-.4-.17-.44-.3a5.09,5.09,0,0,1-.1-1l.14,0c.09.1.19.2.27.31.28.35.56.71.85,1.06a.5.5,0,0,0,.3.2c1.27,0,2.54,0,3.8-.08a1.65,1.65,0,0,0,1.52-1.21A1.8,1.8,0,0,0,18,36.09Zm-5.31,1.77V36.42c.32,0,.82-.1,1,.24a1.11,1.11,0,0,1,0,.86C13.59,38,13,37.87,12.71,37.86Zm6,.95a1.26,1.26,0,0,1-1.43.59A.51.51,0,0,1,17,39c0-.86,0-1.72,0-2.61.62,0,1.25-.08,1.62.51A1.93,1.93,0,0,1,18.67,38.81Zm12.49.56a1.46,1.46,0,0,1-1,0c-.53-.29-.19-.85-.29-1.3.68-.06.67-.06.91.51,0,0,.08.07.13.11s.11-.14.11-.2c0-.44,0-.88,0-1.32,0-.06-.06-.12-.12-.23-.11.25-.11.5-.25.6s-.67.11-.67.17v-1.3c.32,0,.68.06,1,.06s.41.47.63.7l.1,0-.07-1a11.8,11.8,0,0,0-3.34.11c.07,0,.13.1.19.11.43,0,.55.27.55.64,0,.62,0,1.24,0,1.87s-.44,1-1.06.56a10.11,10.11,0,0,1-1.12-1c.33-.33.71-.56.87-.9.3-.62-.2-1.28-1-1.36s-1.48,0-2.21-.05c-.07,0-.14.07-.22.1s.12.14.18.14c.44,0,.53.3.54.66q0,.78,0,1.56c0,.83,0,.83-.72,1.12l0,.1a1,1,0,0,0,.28.09H26.3a.85.85,0,0,0,.26-.1c-.08-.06-.16-.15-.25-.16a.47.47,0,0,1-.45-.49c0-.26,0-.53,0-.9a4.09,4.09,0,0,1,.33.31c.3.36.6.72.87,1.1a.56.56,0,0,0,.52.25h4a1.79,1.79,0,0,0,.33,0v-1c-.32.2-.44.49-.71.57Zm-5.36-1.51V36.43c.64-.08,1.13.14,1.14.68S26.77,37.89,25.81,37.86ZM7.4,35.08a3.52,3.52,0,0,0-2.18,0,2.57,2.57,0,0,0,.34.09.36.36,0,0,1,.35.52c-.25.81-.52,1.6-.82,2.5C5,38,5,38,5,37.91c-.29-.87-.57-1.74-.87-2.61a1.79,1.79,0,0,0-.23-.36,1.66,1.66,0,0,0-.24.35c-.33.94-.64,1.88-1,2.82H2.58c-.23-.71-.47-1.42-.7-2.14s-.14-.63.44-.81a.64.64,0,0,0,.16-.12s-.1-.12-.15-.12H.15c-.05,0-.1.08-.15.12s.08.11.12.11c.65,0,.8.52,1,1q.55,1.72,1.11,3.43a3.72,3.72,0,0,0,.17.39h.11l1.16-3.45L4.78,40h.13c0-.12.1-.25.14-.37.41-1.22.82-2.43,1.22-3.65a1,1,0,0,1,.92-.81A.63.63,0,0,0,7.4,35.08ZM22.91,35a28.22,28.22,0,0,0-2.83-.08s-.1.08-.19.16a1.22,1.22,0,0,0,.26.08.63.63,0,0,1,.66.7q0,1.48,0,3c0,.41-.18.7-.65.71-.07,0-.14.1-.21.15a.74.74,0,0,0,.25.11h2.1c.08,0,.16-.08.24-.12-.07,0-.14-.13-.22-.14-.34,0-.58-.17-.61-.53s-.06-.84-.09-1.31c.33,0,.62,0,.9,0a1.53,1.53,0,0,0,1.5-1A1.29,1.29,0,0,0,22.91,35ZM23,36.86c-.21.38-.43.46-1.39.37V35.35c.32,0,1-.13,1.35.37A1,1,0,0,1,23,36.86Zm-12.66-.43a2.44,2.44,0,0,0-3.11.05,1.86,1.86,0,0,0-.23,2.62A2.35,2.35,0,0,0,8.9,40a3.69,3.69,0,0,0,.49-.06,2.08,2.08,0,0,0,1.67-1.55A1.8,1.8,0,0,0,10.39,36.44Zm-.56,2.69a1.27,1.27,0,0,1-2.09-.24,2.06,2.06,0,0,1-.12-1.65,1.23,1.23,0,0,1,1.26-.95,1.24,1.24,0,0,1,1.27.94,6.44,6.44,0,0,1,.15.68l.07,0A5.24,5.24,0,0,1,9.83,39.13ZM38,37.66a10.22,10.22,0,0,1-1-.54.53.53,0,0,1-.21-.44.64.64,0,0,1,.39-.35c.46-.14.87.15,1.06.68,0,.11.19.19.25.28s.14,0,.14-.06v-1.4c-.32.14-.32.23-.34.25a8.28,8.28,0,0,0-1.17-.13,1,1,0,0,0-.54,1.88,2.67,2.67,0,0,0,.36.21c.29.15.58.28.86.44s.49.34.39.68-.43.41-.76.38a1.2,1.2,0,0,1-1.06-.94c0-.08-.11-.14-.17-.21s-.1.09-.11.14c0,.47,0,.94,0,1.42l.12,0,.27-.36a5.26,5.26,0,0,0,.55.26,1.41,1.41,0,0,0,1.74-.69c.26-.6,0-1.13-.77-1.51Zm-3.46,0-.93-.47c-.22-.12-.43-.31-.28-.55a.83.83,0,0,1,.55-.33c.42-.05.71.22.9.71a1.13,1.13,0,0,0,.2.26l.1-.07c0-.39,0-.78,0-1.16a.82.82,0,0,0-.06-.17l-.34.28L34.42,36a1.34,1.34,0,0,0-1.73.5c-.26.56,0,1.15.78,1.51.32.16.65.32,1,.5s.4.38.26.61a.87.87,0,0,1-.57.36,1.09,1.09,0,0,1-1.14-.7c0-.1-.06-.23-.11-.33s-.11-.08-.17-.12-.09.1-.09.15q0,.62,0,1.24a.19.19,0,0,0,.08.15.19.19,0,0,0,.16-.07A1.59,1.59,0,0,0,33,39.6a5.57,5.57,0,0,0,.55.26,1.43,1.43,0,0,0,1.76-.66c.27-.62,0-1.15-.78-1.54Zm-15-6.89A15.38,15.38,0,1,0,4.12,15.21,15.36,15.36,0,0,0,19.47,30.76Zm0-30A14.62,14.62,0,1,1,4.86,15.28,14.65,14.65,0,0,1,19.45.75ZM13.32,8.47c.13.44-.24.6-.63.63l-1.31.1,4.77,14.21a2.44,2.44,0,0,0,.18-.3c.88-2.64,1.77-5.27,2.63-7.92a1.36,1.36,0,0,0,0-.81c-.45-1.31-1-2.6-1.4-3.93-.27-.91-.64-1.5-1.71-1.39-.18,0-.41-.38-.61-.58.25-.15.49-.42.74-.42q3.28,0,6.57,0c.25,0,.5.28.75.44-.22.2-.41.5-.66.57a7,7,0,0,1-1.35.14L26,23.42c.72-2.4,1.4-4.61,2.05-6.82A6.66,6.66,0,0,0,27.25,11a7.8,7.8,0,0,1-.89-1.6,4.59,4.59,0,0,1-.27-2,2.14,2.14,0,0,1,2.18-1.76C22-.18,12.15,1.9,8.52,8.23c1.4-.06,2.73-.15,4.07-.17a.91.91,0,0,1,.73.41Zm2.5,19.25a2.19,2.19,0,0,0-.05.32,13.36,13.36,0,0,0,8.06-.22L19.68,16.47Zm-2.09-.51L7.49,10.08C4.67,15.58,6.81,24,13.73,27.2Zm18.87-11c.2-2.6-.7-6.2-1.47-6.7a16.23,16.23,0,0,1-.3,3c-.65,2.28-1.44,4.53-2.2,6.78-.83,2.45-1.69,4.88-2.53,7.32A12.6,12.6,0,0,0,32.6,16.2Z"/>
    </g>
  </g>
</svg>
