<svg xmlns="http://www.w3.org/2000/svg" viewBox="0 0 40 33.4">
  <defs>
    <style>
      .cls-1 {
        fill: #333;
      }
    </style>
  </defs>
  <title>opencart</title>
  <g id="Layer_2" data-name="Layer 2">
    <g id="Слой_1" data-name="Слой 1">
      <g id="Слой_1-2" data-name="Слой_1">
        <path class="cls-1" d="M9.2,28.85c-.28,1.61-2.36,1.23-2.06-.63C7.4,26.63,9.53,27,9.2,28.85ZM7.12,30.93c4.82,2.64,4.62-7.55.06-4.7-.12.08-1.6-1.4-1.59,1,0,1.14,0,2.29,0,3.43,0,.75-.3,2.68.66,2.79C7.44,33.52,7.13,31.64,7.12,30.93Z"/>
        <path class="cls-1" d="M29.18,27.27c1.46-.46,1.83,2.21.54,2.55C28.24,30.21,27.87,27.67,29.18,27.27Zm1.32-1c-1.39-1.65-3.71.17-3.64,2.3A3,3,0,0,0,28,31c1.13.79,1.67.26,2.53-.2C32.3,32.51,32,29.38,32,28.48a9.62,9.62,0,0,0-.09-2.22C31.48,25.25,30.69,26.22,30.5,26.31Z"/>
        <path class="cls-1" d="M12.85,28a1,1,0,0,1,2,0Zm3.5.63c.48-1.93-2.09-3.78-4-2.42A2.93,2.93,0,0,0,12.52,31a3.54,3.54,0,0,0,3,0c1.21-.54,1-2-.41-1.38-1.87.82-2.62-.47-2-.59S16.16,29.41,16.35,28.62Z"/>
        <path class="cls-1" d="M2.32,27.27c1.52-.44,1.79,2.23.53,2.55C1.39,30.19,1,27.65,2.32,27.27ZM5.13,29c.52-4-4.66-4.4-5.1-1C-.48,32,4.68,32.47,5.13,29Z"/>
        <path class="cls-1" d="M19,27.07c1.39-.34,1.09,1.77,1.06,2.52-.08,2.18,1.34,1.9,1.51,1a24.82,24.82,0,0,0,0-3.65,1.86,1.86,0,0,0-2.41-1.17c-.92.23-.32.7-1.06.15a.78.78,0,0,0-1.18.43,34.67,34.67,0,0,0,0,3.66c0,1.66,1.49,1.55,1.56.09C18.39,29.37,18,27.31,19,27.07Z"/>
        <path class="cls-1" d="M26.34,27.09c.57-1.4-2.73-2.18-4-.07-.89,1.53-.2,3.91,1.66,4.27.65.13,2.22,0,2.35-.88.22-1.41-1.53-.4-2.14-.62-.83-.29-.92-1.69-.31-2.28C24.79,26.68,25.94,28.07,26.34,27.09Z"/>
        <path class="cls-1" d="M38.77,27.33c.56-.09,1.24.06,1.23-.75s-.68-.63-1.23-.71c0-.64.14-1.84-.8-1.8s-.7,1.2-.74,1.81c-1.42.2-1.39,1.25,0,1.44,0,.94-.43,3.93.78,3.92S38.77,28.16,38.77,27.33Z"/>
        <path class="cls-1" d="M36,26.67c.16-.73-.6-1.14-1.25-.81-.25.12-.49.48-.63.36s-.24-.41-.77-.38c-1.11.07-.71,3.11-.71,3.94,0,.65-.08,1.62.93,1.45.77-.13.61-1.16.61-1.72C34.13,26.1,35.64,28.07,36,26.67Z"/>
        <g id="_924079017216" data-name=" 924079017216">
          <g>
            <path class="cls-1" d="M25.57,19.91a2.19,2.19,0,0,0-4.31-.76A2.21,2.21,0,1,0,25.57,19.91Z"/>
            <path class="cls-1" d="M16.12,19.91a2.22,2.22,0,0,0-1.75-2.48,2.19,2.19,0,1,0,1.75,2.48Z"/>
          </g>
          <path class="cls-1" d="M6.29,0a5,5,0,0,0,.55,1C11.47,8.21,22.57,5.7,29.33,6.61c1.45.2,4.1.5,3,2.32s-5.14,5.55-5.39,6.45c.49-.28,1.39-1.16,1.89-1.56,1.65-1.31,3.82-3.4,5.47-4.8,5.32-4.5-1.2-4.64-4.8-4.77C25.13,4.07,20.2,4.51,16,4,8.85,3.11,7.09.34,6.29,0Z"/>
        </g>
      </g>
    </g>
  </g>
</svg>
