<svg xmlns="http://www.w3.org/2000/svg" viewBox="0 0 40 20.27">
  <defs>
    <style>
      .cls-1 {
        fill: #333;
      }
    </style>
  </defs>
  <title>php</title>
  <g id="Layer_2" data-name="Layer 2">
    <g id="Слой_1" data-name="Слой 1">
      <path class="cls-1" d="M20,0C9,0,0,4.54,0,10.14S9,20.27,20,20.27s20-4.54,20-10.14S31,0,20,0ZM14.8,12.11a3.91,3.91,0,0,1-1.59.82,7.83,7.83,0,0,1-2.23.15h-2l-.57,3.27H6L8.1,5.23h4.6a3.83,3.83,0,0,1,3,1.12,3.45,3.45,0,0,1,.57,3.06,4.81,4.81,0,0,1-1.5,2.71Zm7,1,.94-4.72A1.4,1.4,0,0,0,22.6,7.2a1.65,1.65,0,0,0-1.19-.34h-1.9l-1.22,6.22H15.92l2.13-10.8h2.37l-.57,2.95H22A4.09,4.09,0,0,1,24.72,6a2.08,2.08,0,0,1,.45,2.14l-1,5ZM35,9.42a4.77,4.77,0,0,1-1.5,2.69,3.91,3.91,0,0,1-1.59.82,7.84,7.84,0,0,1-2.23.15h-2L27,16.36H24.63L26.76,5.23h4.6a3.83,3.83,0,0,1,3,1.12A3.49,3.49,0,0,1,35,9.42Zm-4.5-2.56H28.81l-.89,4.58h1.45A3.55,3.55,0,0,0,31.53,11a2.77,2.77,0,0,0,1-1.77,2.13,2.13,0,0,0-.22-1.79A2.43,2.43,0,0,0,30.45,6.86Zm-18.65,0H10.16l-.89,4.58h1.45A3.55,3.55,0,0,0,12.87,11a2.77,2.77,0,0,0,1-1.77,2.13,2.13,0,0,0-.22-1.79A2.43,2.43,0,0,0,11.79,6.86Z"/>
    </g>
  </g>
</svg>
