<svg xmlns="http://www.w3.org/2000/svg" viewBox="0 0 40 39.92">
  <defs>
    <style>
      .cls-1 {
        fill: #333;
      }
    </style>
  </defs>
  <title>ps</title>
  <g id="Layer_2" data-name="Layer 2">
    <g id="Слой_1" data-name="Слой 1">
      <path class="cls-1" d="M15.63,12.89a8.85,8.85,0,0,0-3.57,0c0,2.16,0,4.26,0,6.37a.42.42,0,0,0,.27.31,6.71,6.71,0,0,0,3.95-.42,3.33,3.33,0,0,0,1.79-3.52A3,3,0,0,0,15.63,12.89ZM40,20V.73C40,.06,40,0,39.36,0H.79C.16,0,0,.06,0,.69V39.27c0,.64.08.64.7.64,12.87,0,25.79,0,38.66,0,.5,0,.63-.13.63-.62C40,32.86,40,26.42,40,20ZM17.57,21.84a13.12,13.12,0,0,1-5.51.52v7.16H8.57v-.45c0-6,0-12,0-18,0-.5.08-.74.64-.8a23.64,23.64,0,0,1,7.91,0c2.83.66,4.46,2.53,4.58,5.11C21.81,18.64,20.4,20.83,17.57,21.84Zm14.07,4a3.92,3.92,0,0,1-2.86,3.62A9.45,9.45,0,0,1,22,29.22c-.36-.14-.43-.33-.31-.7.22-.67.38-1.37.55-2a26.06,26.06,0,0,0,2.75.78,6.28,6.28,0,0,0,2-.06,1.29,1.29,0,0,0,1.12-1.13,1.43,1.43,0,0,0-.67-1.55c-.45-.27-1-.47-1.44-.7a20,20,0,0,1-2.31-1.12,3.86,3.86,0,0,1,0-6.47,6.09,6.09,0,0,1,3.29-1,8.4,8.4,0,0,1,4.06.83l-.7,2.47A11.17,11.17,0,0,0,28.77,18a7.54,7.54,0,0,0-2-.13,1.4,1.4,0,0,0-1.38,1.42,1.12,1.12,0,0,0,.54,1c.53.31,1.09.56,1.65.82s1.24.49,1.82.81A3.91,3.91,0,0,1,31.64,25.89Z"/>
    </g>
  </g>
</svg>
