<svg xmlns="http://www.w3.org/2000/svg" viewBox="0 0 34.18 40">
  <defs>
    <style>
      .cls-1 {
        fill: #333;
      }
    </style>
  </defs>
  <title>drupal</title>
  <g id="Layer_2" data-name="Layer 2">
    <g id="Слой_1" data-name="Слой 1">
      <path class="cls-1" d="M18,32H16.39v3c0,.88-.38,1.6-1.26,1.6s-1.27-.71-1.27-1.6V32H12.25v3A2.89,2.89,0,1,0,18,35Zm14.57-1.84h1.61V38H32.57ZM10.94,31.93a2.3,2.3,0,0,0-2.3,1.13s0,.06-.08.06-.06-.06-.06-.06L8.33,32H6.89v6H8.51V34.77a1.76,1.76,0,0,1,2.1-1.21,2.19,2.19,0,0,1,1,.46V32.19A2.58,2.58,0,0,0,10.94,31.93ZM20.2,40V37.84h0V37s0-.06.06-.07.06,0,.08.07a1.91,1.91,0,0,0,2.29,1.1,3.18,3.18,0,1,0-4-3.06V40Zm1.56-6.54a1.61,1.61,0,1,1-1.61,1.61A1.61,1.61,0,0,1,21.76,33.46ZM30.3,38h1.62v-3a3.18,3.18,0,1,0-4,3.06A1.91,1.91,0,0,0,30.16,37s0-.07.08-.07.06.07.06.07m0-2a1.61,1.61,0,1,1-1.61-1.61A1.61,1.61,0,0,1,30.35,35.07ZM1.84,38H0V30.15H2c2.39,0,4.2.44,4.2,3.93S4.25,38,1.84,38Zm.44-6.5H1.63v5.13l.67,0c1.37,0,2.25-.12,2.25-2.58S3.76,31.51,2.27,31.51ZM23.46,5.44c-1.49-.93-2.9-1.3-4.31-2.23A20.1,20.1,0,0,1,16,0a4.34,4.34,0,0,1-1.47,3.3A20.3,20.3,0,0,1,11,5.44a12.81,12.81,0,0,0-6.71,11.2A12.8,12.8,0,0,0,17.2,29.27c6.8,0,12.69-4.94,12.69-12.41A13.26,13.26,0,0,0,23.46,5.44Zm.16,21.18a6.12,6.12,0,0,1-3,1.18c-1.52.14-3.58.23-4.82-.9a.41.41,0,0,1,0-.59.66.66,0,0,1,.42-.2c.17,0,.14,0,.23.06a4.79,4.79,0,0,0,3.21.82,6.38,6.38,0,0,0,3.64-.93c.25-.2.37,0,.39.08A.43.43,0,0,1,23.63,26.62Zm-4.94-2.57a5.12,5.12,0,0,1,1.3-.93A2.53,2.53,0,0,1,21.17,23a2.33,2.33,0,0,1,1.27.25,2.23,2.23,0,0,1,.65,1,.4.4,0,0,1-.23.56c-.2.11-.23.06-.42-.31s-.37-.73-1.35-.73a2.28,2.28,0,0,0-1.78.73c-.48.39-.65.54-.82.31S18.38,24.33,18.69,24.05Zm7.47.23c-1-.08-3-3.24-4.34-3.3-1.64-.06-5.19,3.41-8,3.41a4.23,4.23,0,0,1-2.76-.62A3,3,0,0,1,9.84,21a4.65,4.65,0,0,1,4.68-4.29c3.3,0,5.58,3.27,7.25,3.24,1.41,0,4.12-2.79,5.44-2.79S29,18.67,29,19.54a6.93,6.93,0,0,1-1,3.44C27.38,24,27,24.33,26.17,24.28Z"/>
    </g>
  </g>
</svg>
