<svg xmlns="http://www.w3.org/2000/svg" viewBox="0 0 40 18.86">
  <defs>
    <style>
      .cls-1 {
        fill: #333;
      }
    </style>
  </defs>
  <title>less</title>
  <g id="Layer_2" data-name="Layer 2">
    <g id="Слой_1" data-name="Слой 1">
      <path class="cls-1" d="M38.51,7.73a3.69,3.69,0,0,1-.3-1.36c0-1.13,0-2.27-.06-3.4A2.71,2.71,0,0,0,36.77.52,6,6,0,0,0,34,0V1.82a1.9,1.9,0,0,1,.32,0C35.56,1.9,36,2.31,36,3.58c0,.94,0,1.89,0,2.83a3.29,3.29,0,0,0,1.24,3s0,.06,0,.11A2.43,2.43,0,0,0,36.21,11,11,11,0,0,0,36,12.65c0,1,0,2,0,3a1.24,1.24,0,0,1-1.14,1.31c-.28.07-.59.09-.9.13v1.8c.63,0,1-.06,1.39-.11a2.75,2.75,0,0,0,2.75-2.62c.06-.5.05-1,.06-1.51,0-.94,0-1.89.09-2.83A1.52,1.52,0,0,1,40,10.37V8.48A1.32,1.32,0,0,1,38.51,7.73ZM8.67,11.58c0-3.67-.1-7.33-.1-11V0c-1,0-2,0-3,0A9.24,9.24,0,0,0,4.42.1,2.65,2.65,0,0,0,1.85,2.58a8.5,8.5,0,0,0-.07,1.36c0,.87,0,1.73,0,2.6,0,1.09-.53,1.93-1.64,2,0,0,.18,0-.14.07V10.3c1.27.2,1.67.71,1.76,1.89,0,.19,0,.38,0,.57,0,1.05,0,2.11,0,3.16A2.54,2.54,0,0,0,3,18.29a6.33,6.33,0,0,0,2.7.55V17s-.07,0-.13,0c-1.38-.08-1.69-.46-1.7-1.84,0-.91,0-1.83,0-2.74a3.31,3.31,0,0,0-1.22-3s0-.06,0-.12A2.55,2.55,0,0,0,3.85,7.42a13,13,0,0,0,.08-1.36c0-.94,0-1.89,0-2.83A1.26,1.26,0,0,1,4.94,2a10.47,10.47,0,0,1,1.73-.15v.65c0,3.27-.12,6.55-.1,9.82,0,1.12.13,2.23,1.33,2.71a14.66,14.66,0,0,0,2.1.52c.13-.73.17-1.34.27-1.95C8.89,13.18,8.67,13,8.67,11.58Zm8.47-6.32a4.67,4.67,0,0,0-6.24,2.2,6.51,6.51,0,0,0-.07,5.36,3.84,3.84,0,0,0,2.05,2.12,7.81,7.81,0,0,0,5.66,0,.42.42,0,0,0,.22-.33c-.06-.53-.17-1-.27-1.59-.45.11-.83.23-1.21.3a5.34,5.34,0,0,1-3-.2A2.39,2.39,0,0,1,12.8,10.7h6.63a8.1,8.1,0,0,0-.36-3.34,3.62,3.62,0,0,0-1.93-2.09Zm0,3.85H12.77a2.38,2.38,0,0,1,2.39-2.38A2.14,2.14,0,0,1,17.13,9.11ZM34.94,13a2.78,2.78,0,0,0-1.76-3.2c-.51-.25-1-.43-1.56-.66a10.3,10.3,0,0,1-1.14-.56.93.93,0,0,1-.45-1,.83.83,0,0,1,.69-.75,5.05,5.05,0,0,1,1.39-.13c.65.05,1.29.22,2,.34l.42-1.85c-.91-.14-1.75-.32-2.6-.38a5,5,0,0,0-2.74.53,2.84,2.84,0,0,0-.18,4.8c.5.28,1,.51,1.57.76s1.12.49,1.65.79a.94.94,0,0,1,.44,1.1.85.85,0,0,1-.82.67,8.45,8.45,0,0,1-1.78,0,21.12,21.12,0,0,1-2.11-.46l-.37,1.84a8.7,8.7,0,0,0,5.06.36A2.63,2.63,0,0,0,34.94,13Zm-9-3c-.62-.33-1.29-.57-1.93-.86a6.84,6.84,0,0,1-1.17-.59A.92.92,0,0,1,23,6.88a3.88,3.88,0,0,1,1.44-.15,19.45,19.45,0,0,1,2,.34l.4-1.76c-.34-.09-.65-.19-1-.26a6.88,6.88,0,0,0-3.77.07,2.66,2.66,0,0,0-2,2.26,2.69,2.69,0,0,0,1.49,3c.49.25,1,.43,1.51.67a13.13,13.13,0,0,1,1.46.74.91.91,0,0,1,.39,1,.86.86,0,0,1-.8.69,8.25,8.25,0,0,1-1.78,0,21.16,21.16,0,0,1-2.13-.46c-.11.51-.24,1-.31,1.55a.45.45,0,0,0,.22.37,8.33,8.33,0,0,0,5.19.17,2.44,2.44,0,0,0,1.91-2.1A2.71,2.71,0,0,0,25.92,10Z"/>
    </g>
  </g>
</svg>
