<svg xmlns="http://www.w3.org/2000/svg" viewBox="0 0 50 21.32">
  <defs>
    <style>
      .cls-1 {
        fill: #333;
      }
    </style>
  </defs>
  <title>ajax</title>
  <g id="Layer_2" data-name="Layer 2">
    <g id="Слой_1" data-name="Слой 1">
      <g id="Layer_2-2" data-name="Layer 2">
        <g id="svg2">
          <path id="path3338" class="cls-1" d="M16.58,0a3.37,3.37,0,0,0-3.38,3.37h0v8.36H13.1l-1.66-1.41-1.3,1.35L14.41,16l4.34-4.27-1.49-1.35-1.41,1.42h-.16V3.59a1.87,1.87,0,0,1,1.87-1.87H19a1.87,1.87,0,0,1,1.87,1.87v.87H23.8V3.38A3.37,3.37,0,0,0,20.44,0H16.58Zm5.8,5.36L18,9.63,19.53,11l1.42-1.42h.16v8.16a1.87,1.87,0,0,1-1.87,1.87H17.75a1.87,1.87,0,0,1-1.87-1.87v-.87H13v1.08a3.37,3.37,0,0,0,3.36,3.38h3.85A3.37,3.37,0,0,0,23.59,18s0,0,0,0V9.57h.11L25.35,11l1.3-1.35ZM37.73,10,42,15.35,37.28,21h3.87l2.58-3.73L46.37,21H50L45.41,15.3,49.72,10H46.14l-2.46,3.49L41.36,10ZM4.89,10,0,21H3.2l.95-2.32H9.06L10,21H13.2L8.3,10Zm23.7,0L23.7,21h3.2l.95-2.32h4.91L33.7,21h3.2L32,10Zm-22,2.58.83,2.08.82,2.08H5l.82-2.09Zm23.7,0,.83,2.08L32,16.78H28.67l.82-2.09Z"/>
        </g>
      </g>
    </g>
  </g>
</svg>
