<svg xmlns="http://www.w3.org/2000/svg" viewBox="0 0 40 40">
  <defs>
    <style>
      .cls-1 {
        fill: #333;
      }
    </style>
  </defs>
  <title>skype</title>
  <g id="Layer_2" data-name="Layer 2">
    <g id="Слой_1" data-name="Слой 1">
      <g>
        <path class="cls-1" d="M37,25.94A18.13,18.13,0,0,0,20,1.4a17.94,17.94,0,0,0-6.36,1.15A7.78,7.78,0,0,0,7.86,0,7.85,7.85,0,0,0,2.8,13.86a18,18,0,0,0,4.38,18.5,18.06,18.06,0,0,0,18.58,4.36A7.85,7.85,0,1,0,37,25.94ZM32.14,38.3a6.17,6.17,0,0,1-5.3-3,.85.85,0,0,0-1-.37A16.41,16.41,0,0,1,3.57,19.53a16.22,16.22,0,0,1,1-5.67.85.85,0,0,0-.3-1A6.15,6.15,0,0,1,7.86,1.7a6.1,6.1,0,0,1,4.86,2.39.85.85,0,0,0,1,.26A16.43,16.43,0,0,1,36.43,19.53a16.37,16.37,0,0,1-1.29,6.39.85.85,0,0,0,.32,1A6.15,6.15,0,0,1,32.14,38.3Z"/>
        <path class="cls-1" d="M21.26,16.86c-5.89-1.14-6.27-2.94-4.85-4.2S22,10.85,23.22,13s2,3,3.54,2.62,1.73-2.45,1.09-3.71c-.51-1-2.84-3.6-7.42-3.6S11.06,10,11.06,14.25s4.36,6.05,8.56,6.65,5.18,2.4,4.63,3.71-2.35,2.56-5.07,2.29a5.29,5.29,0,0,1-4.36-3.71A2.09,2.09,0,0,0,12.59,22c-.6.06-2.51.82-1.64,3.49s3.71,4.8,9.38,4.8,9-3.49,9-6.81S27.15,18,21.26,16.86Z"/>
      </g>
    </g>
  </g>
</svg>
