<svg xmlns="http://www.w3.org/2000/svg" viewBox="0 0 40 40">
  <defs>
    <style>
      .cls-1 {
        fill: #333;
      }
    </style>
  </defs>
  <title>js</title>
  <g id="Layer_2" data-name="Layer 2">
    <g id="Слой_1" data-name="Слой 1">
      <path class="cls-1" d="M0,0V40H40V0ZM21.16,34.08a4.73,4.73,0,0,1-3,2.37,7.27,7.27,0,0,1-5.35-.66,6,6,0,0,1-2.21-2.53l3-1.87a1.93,1.93,0,0,1,.21.34,3.22,3.22,0,0,0,1.38,1.44c.65.22,2.07.36,2.62-.78.34-.58.23-2.44.23-4.5,0-3.24,0-6.46,0-9.66h3.75c0,3.52,0,6.85,0,10.29C21.83,30.63,22,32.51,21.16,34.08ZM36.7,33c-1.3,4.46-8.56,4.6-11.47,1.66a6.77,6.77,0,0,1-1.36-1.85l3-1.76a4.29,4.29,0,0,0,2.92,2.22c1.84.22,3.69-.41,3.27-2.36-.43-1.6-3.77-2-6-3.69a5.24,5.24,0,0,1-1-7.47A5.35,5.35,0,0,1,29,18.1L30.14,18a5.65,5.65,0,0,1,4.72,1.71,7.48,7.48,0,0,1,1,1.29c-1.21.77-1.2.76-2.93,1.88a2.79,2.79,0,0,0-1.63-1.51,1.93,1.93,0,0,0-2.54,1.09,2.07,2.07,0,0,0,.07,1.17c.41.93,1.77,1.33,3,1.9,3.53,1.43,4.72,3,5,4.79A5.5,5.5,0,0,1,36.7,33Z"/>
    </g>
  </g>
</svg>
