<svg xmlns="http://www.w3.org/2000/svg" viewBox="0 0 33.77 40">
  <defs>
    <style>
      .cls-1 {
        fill: #333;
      }
    </style>
  </defs>
  <title>laravel</title>
  <g id="Layer_2" data-name="Layer 2">
    <g id="Слой_1" data-name="Слой 1">
      <path class="cls-1" d="M1.23,5.5,2.1,6.93l.8,1.33,1.24,2.07L5,11.74l1.23,2.05,1.51,2.52L9,18.48l.06.08a.29.29,0,0,0,.17,0L11,18.15l2.79-.67,1.46-.35L18,16.46l2.85-.68,1.44-.34,2.79-.67,3-.72.16,0,0-.09-.83-1.17-.82-1.16-.88-1.24-.84-1.19L24.09,8l-.86-1.21-.84-1.18L21.95,5a1.16,1.16,0,0,1-.16-.31A.5.5,0,0,1,22,4.06a1,1,0,0,1,.35-.19,5.52,5.52,0,0,1,.54-.14L24,3.55l1.24-.2L26,3.21,27,3l1-.17,1.13-.19L30,2.54l.9-.15L32,2.21a1.37,1.37,0,0,1,1.12.24l.19.14s0-.07,0-.09A4.46,4.46,0,0,0,32.17,1a4.25,4.25,0,0,0-2.53-1l-.17,0H4.31L4.17,0a4.78,4.78,0,0,0-.89.15A4.43,4.43,0,0,0,.1,3.6l.15.25,1,1.64ZM2.9,33.38a4,4,0,0,0,1,.24h.33l.15,0H14.59s0,0,0-.08c-.4-.69-.81-1.36-1.21-2.05L11.83,28.9,10.26,26.1,8.77,23.42l-.9-1.62-.08-.12-.15,0-.86.23-1.2.32-2.7.7-2.73.71c-.06,0,.16,0-.15,0v5.68c.32,0,0,.09.05.15s0,.34.06.5a4.26,4.26,0,0,0,.71,1.71A4.42,4.42,0,0,0,2.9,33.38ZM1,20.56l3.18-.75,1.4-.33.7-.17c.21-.06.23-.12.13-.31l-.46-.8L4.52,15.85,3.16,13.5,1.78,11.12l-1.19-2L.1,8.19c0-.05.22-.12-.1-.15V20.79l.11,0Zm32.59,9.11-1.25.44-2.83,1-1.57.57-3.21,1.14-1.86.64a1.67,1.67,0,0,1-.51.17h7.27a3.85,3.85,0,0,0,.54-.06,4.36,4.36,0,0,0,2-.89,4.43,4.43,0,0,0,1.09-1.27,4.55,4.55,0,0,0,.55-1.64.18.18,0,0,0,0-.16.4.4,0,0,0-.16,0Zm-.61-9.56L32,18.81,30.7,17l-.53-.72a.16.16,0,0,0-.19-.07h0l-2.39.58-1.43.35-2.79.68-2.76.67-2.87.69-2.82.69-2.73.66-1.44.35a.51.51,0,0,0-.22.08l.06.12,1.21,2.08,1.37,2.36,1.51,2.59.87,1.49,1,1.64c.1.16.21.32.32.47a1,1,0,0,0,.28.26.48.48,0,0,0,.37.06l.2-.06.24-.09L20.54,31l2-.69,2-.68,2-.68,2.05-.69,2.52-.86,2.43-.82a.25.25,0,0,0,.15-.08v-.12q0-2.52,0-5a.37.37,0,0,0-.08-.23l-.76-1ZM32.8,4.26A.64.64,0,0,0,32.07,4l-.39.08-1.29.23-1.88.34L27,4.94l-2,.35-.25.05c-.12,0-.15.11-.1.22a1.76,1.76,0,0,0,.16.26l1.24,1.7L27.8,9.87l1.45,2,1.14,1.56.08.09,3.3-.82v-.17q0-3.43,0-6.86a.4.4,0,0,0-.09-.26l-.82-1.06Zm.89,11.09c-.5.12-1,.23-1.51.37.05.1,1.46,2,1.54,2.08l.05,0v-.91c0-.46,0-.92,0-1.39a.28.28,0,0,0,0-.17ZM.61,40V34.56H1.77V39H4v1Zm7.63,0-.39-1.29h-2L5.47,40H4.23l1.92-5.46H7.56L9.49,40Zm-.67-2.26-.62-2q-.07-.23-.1-.36-.12.48-.7,2.35Zm3.75.17V40H10.17V34.56h1.58a2.71,2.71,0,0,1,1.64.4A1.61,1.61,0,0,1,13.67,37a1.75,1.75,0,0,1-.75.59q1.23,1.83,1.6,2.37H13.24l-1.3-2.09h-.61Zm0-.94h.37a1.42,1.42,0,0,0,.81-.18.65.65,0,0,0,.26-.57.59.59,0,0,0-.27-.55,1.62,1.62,0,0,0-.82-.16h-.35Zm7.21,3-.39-1.29h-2L15.76,40H14.52l1.92-5.46h1.41L19.78,40Zm-.67-2.26-.62-2q-.07-.23-.1-.36-.12.48-.7,2.35Zm5.7-3.18h1.16L22.88,40H21.62l-1.85-5.44h1.16l1,3.24q.09.29.18.67t.11.53a9.52,9.52,0,0,1,.28-1.2Zm5,5.44H25.41V34.56h3.13v.95h-2V36.7h1.84v.95H26.57V39h2Zm1.13,0V34.56h1.15V39H33v1Z"/>
    </g>
  </g>
</svg>
