<svg xmlns="http://www.w3.org/2000/svg" viewBox="0 0 50 25.97">
  <defs>
    <style>
      .cls-1 {
        fill: #333;
      }
    </style>
  </defs>
  <title>mysql</title>
  <g id="Layer_2" data-name="Layer 2">
    <g id="Слой_1" data-name="Слой 1">
      <path class="cls-1" d="M0,23.65H1.66V17.11l2.56,5.7a1.41,1.41,0,0,0,1.53.93,1.39,1.39,0,0,0,1.51-.93l2.56-5.7v6.54h1.66V17.12A1,1,0,0,0,10.7,16c-1.26-.39-2.1-.05-2.49.8L5.7,22.44,3.27,16.81C2.9,16,2,15.63.78,16A1,1,0,0,0,0,17.12v6.53Zm12.86-5.33h1.66v3.6c0,.2.06.66,1,.67h3.6V18.31h1.66s0,5.85,0,5.88c0,1.44-1.79,1.76-2.62,1.78H12.9V24.85h5.24c1.07-.11.94-.64.94-.82V23.6H15.56c-1.64,0-2.68-.73-2.69-1.55C12.86,22,12.9,18.36,12.86,18.33ZM22,23.65h4.76a3.68,3.68,0,0,0,1.53-.32A1.5,1.5,0,0,0,29.39,22V20.76c0-.48-.4-.92-1.18-1.22a4.07,4.07,0,0,0-1.42-.24h-2c-.67,0-1-.2-1.07-.65a.48.48,0,0,1,0-.15v-.75a.45.45,0,0,1,0-.14c.08-.34.25-.44.84-.49h4.89V16H24.8a4.47,4.47,0,0,0-1.34.14c-1,.31-1.42.8-1.42,1.65v1c0,.74.84,1.38,2.26,1.53l.48,0h1.9c.53,0,.75.14.91.33a.39.39,0,0,1,.13.3v1a.55.55,0,0,1-.24.39,1.17,1.17,0,0,1-.7.23H22Zm17.69-1.92c0,1.14.84,1.77,2.55,1.9l.48,0h4.32v-1.1H42.72c-1,0-1.34-.24-1.34-.83V16H39.72v5.72Zm-9.28.06V17.85c0-1,.7-1.61,2.09-1.8A3.15,3.15,0,0,1,33,16h3.14a3.36,3.36,0,0,1,.46,0c1.39.19,2.09.8,2.09,1.8v3.94a1.44,1.44,0,0,1-1,1.53l1.63,1.47H37.4L36.08,23.6l-1.33.08H33a3.66,3.66,0,0,1-1-.14C31,23.26,30.45,22.7,30.45,21.79Zm1.79-.1a.72.72,0,0,0,0,.17c.1.46.53.71,1.18.71H35l-1.38-1.25h1.92l1.21,1.09a.79.79,0,0,0,.42-.53.55.55,0,0,0,0-.16V17.95a.52.52,0,0,0,0-.15c-.1-.43-.53-.67-1.17-.67H33.45c-.73,0-1.21.32-1.21.82v3.75Zm16.29-7.52a5.83,5.83,0,0,0-2.46.35c-.19.08-.49.08-.52.32s.12.27.2.41a3.19,3.19,0,0,0,.67.78c.26.2.53.41.81.58.5.3,1.05.48,1.53.78.28.18.56.41.84.61s.23.26.41.32v0c-.09-.12-.12-.28-.2-.41l-.38-.38a6.16,6.16,0,0,0-1.33-1.27c-.4-.28-1.28-.67-1.45-1.13l0,0a6.4,6.4,0,0,0,.87-.2c.44-.12.82-.09,1.27-.2l.61-.17v-.12c-.23-.23-.39-.54-.64-.75a18.64,18.64,0,0,0-2.08-1.56c-.4-.25-.9-.42-1.33-.64-.14-.07-.4-.11-.49-.23a6.1,6.1,0,0,1-.52-1c-.36-.7-.72-1.46-1-2.2a11.82,11.82,0,0,0-.64-1.45,12.79,12.79,0,0,0-4.92-4.75,5.9,5.9,0,0,0-1.62-.52l-1-.06A5.11,5.11,0,0,1,34.54.8C33.81.34,31.95-.66,31.41.65c-.34.83.51,1.64.81,2.06a6.23,6.23,0,0,1,.64,1c.1.22.12.44.2.67A15.25,15.25,0,0,0,33.73,6a6,6,0,0,0,.46.78c.11.15.29.21.32.43a3.54,3.54,0,0,0-.29,1,5.55,5.55,0,0,0,.38,4.26c.2.32.68,1,1.33.75s.44-1,.61-1.59c0-.14,0-.25.09-.35v0l.52,1a7.1,7.1,0,0,0,1.65,1.71c.3.23.54.62.93.75v0h0c-.08-.12-.19-.17-.29-.26a6.58,6.58,0,0,1-.67-.75,17.61,17.61,0,0,1-1.42-2.32c-.2-.39-.38-.82-.55-1.22-.07-.15-.07-.38-.2-.46a5.75,5.75,0,0,0-.61.87,7.45,7.45,0,0,0-.35,1.91l-.06,0c-.4-.1-.55-.51-.7-.87a5.47,5.47,0,0,1-.12-3.39c.09-.27.48-1.11.32-1.36s-.32-.39-.46-.58a4.53,4.53,0,0,1-.46-.81c-.31-.7-.46-1.49-.78-2.2a6.43,6.43,0,0,0-.64-1,5.79,5.79,0,0,1-.7-1C32,1.26,31.86,1,32,.88a.23.23,0,0,1,.17-.17c.17-.13.64,0,.81.12a7.09,7.09,0,0,1,1.25.64c.19.13.38.37.61.43h.26c.41.09.86,0,1.25.14a7.53,7.53,0,0,1,1.82.87,11.3,11.3,0,0,1,4,4.34c.15.29.22.56.35.87.27.62.6,1.25.87,1.85a8.65,8.65,0,0,0,.9,1.71c.2.26,1,.4,1.3.55a7.74,7.74,0,0,1,.87.35c.44.26.86.58,1.27.87C47.86,13.6,48.49,13.91,48.52,14.17Zm-12.94-11a2.07,2.07,0,0,0-.52.06v0h0a3.92,3.92,0,0,0,.41.52l.29.61,0,0a.71.71,0,0,0,.26-.64c-.07-.08-.08-.17-.14-.26S35.68,3.24,35.58,3.14Z"/>
    </g>
  </g>
</svg>
