<svg xmlns="http://www.w3.org/2000/svg" viewBox="0 0 44.95 36.3">
  <defs>
    <style>
      .cls-1 {
        fill: #333;
      }
    </style>
  </defs>
  <title>openstreetmap</title>
  <g id="Layer_2" data-name="Layer 2">
    <g id="Слой_1" data-name="Слой 1">
      <g>
        <g>
          <path class="cls-1" d="M26.72,0H28.1l.39.06a8.65,8.65,0,0,1,7.26,6.34c.15.54.21,1.1.31,1.66V9.23c-.06.41-.1.82-.18,1.22A8.68,8.68,0,0,1,22.7,16l-.34-.21c-.59.59-1.16,1.17-1.74,1.74a.38.38,0,0,0-.09.53,1.41,1.41,0,0,1-.2,1.71c-.15.17-.3.35-.46.51l-6.19,6.19a2.34,2.34,0,0,1-1.13.73H12a2.59,2.59,0,0,1-1.06-.71L9.57,25.11A2.19,2.19,0,0,1,8.9,24v-.58a3.23,3.23,0,0,1,.92-1.24q2.68-2.72,5.39-5.41c.33-.33.69-.64,1-1a1.51,1.51,0,0,1,1.93-.25c.15.09.24.05.36-.07l1.67-1.67.13-.15,0-.06-.21-.34A8.72,8.72,0,0,1,18.75,8,8.62,8.62,0,0,1,25.11.31C25.64.17,26.19.1,26.72,0Zm.72,1.46a7.22,7.22,0,1,0,7.18,7.17A7.22,7.22,0,0,0,27.44,1.46Z"/>
          <path class="cls-1" d="M23.38,18.34l3.59,1,1.22.35c.19.05.26.13.2.34-.32,1.12-.63,2.24-.94,3.36l-.35,1.25c0,.15-.1.23-.28.17l-4.7-1.37L22,23.37Z"/>
          <path class="cls-1" d="M27.76,24.77c0-.12,0-.2.06-.29.42-1.48.85-3,1.28-4.45a.43.43,0,0,1,.23-.27c1.53-.44,3.06-.86,4.59-1.29h.13c0,.13,0,.25-.08.37-.4,1.43-.81,2.85-1.21,4.28a.43.43,0,0,1-.34.34l-4.35,1.24Z"/>
          <path class="cls-1" d="M18,24.21c.61-.6,1.23-1.19,1.84-1.79s1-1,1.48-1.52a3,3,0,0,0,.88-2.12c0-.06,0-.12,0-.19a.48.48,0,0,1,0-.07l.19-.07.21,0a1.66,1.66,0,0,1,0,.21Q22,20.9,21.3,23.16a.39.39,0,0,1-.2.24l-3,.9Z"/>
          <path class="cls-1" d="M33.86,16.54l.32,1.15-5.09,1.43-.12-.4A10.91,10.91,0,0,0,33.86,16.54Z"/>
          <path class="cls-1" d="M10.49,12l1.46-5L17,8.32c-.28,1-.55,2-.83,2.94-.18.63-.38,1.25-.56,1.88-.06.2-.14.26-.36.2L10.67,12Z"/>
          <path class="cls-1" d="M16.92,7.63,14.38,6.9c-.73-.21-1.46-.42-2.18-.65A.45.45,0,0,1,11.93,6c-.45-1.55-.89-3.11-1.33-4.66a.3.3,0,0,1,0-.08l.4.1,4.25,1.22a.41.41,0,0,1,.33.32c.42,1.5.85,3,1.28,4.51C16.89,7.47,16.89,7.52,16.92,7.63Z"/>
          <path class="cls-1" d="M10.56,12.7l.9.23,3.61,1a2.11,2.11,0,0,1,.37.14c.15.08.18.18,0,.31l-2.91,2.83a3.9,3.9,0,0,1-.48.46C11.5,16.07,11,14.43,10.56,12.7Z"/>
          <path class="cls-1" d="M17.36,6.62l-1.17-4,3.86-1.11,0,.05a10.08,10.08,0,0,0-2.66,5Z"/>
          <path class="cls-1" d="M16.28,13.35l1-3.34.8,2.83Z"/>
        </g>
        <g>
          <path class="cls-1" d="M3.9,32.81A2.76,2.76,0,0,1,3.66,34a1.8,1.8,0,0,1-.68.79,1.89,1.89,0,0,1-1,.28,1.9,1.9,0,0,1-1-.27A1.82,1.82,0,0,1,.25,34,2.68,2.68,0,0,1,0,32.83v-.23a2.75,2.75,0,0,1,.24-1.19,1.81,1.81,0,0,1,.69-.79,1.89,1.89,0,0,1,1-.28,1.89,1.89,0,0,1,1,.28,1.82,1.82,0,0,1,.69.79A2.74,2.74,0,0,1,3.9,32.6Zm-1-.21a1.93,1.93,0,0,0-.26-1.09.84.84,0,0,0-.74-.37.84.84,0,0,0-.73.37A1.9,1.9,0,0,0,1,32.59v.22a2,2,0,0,0,.26,1.09.84.84,0,0,0,.74.39.83.83,0,0,0,.73-.37,1.94,1.94,0,0,0,.26-1.09Z"/>
          <path class="cls-1" d="M7.59,33.32a2,2,0,0,1-.36,1.26,1.14,1.14,0,0,1-1,.47,1.06,1.06,0,0,1-.83-.36v1.6H4.52V31.59h.84l0,.33a1.07,1.07,0,0,1,.86-.4,1.15,1.15,0,0,1,1,.47,2.1,2.1,0,0,1,.35,1.28Zm-.91-.07a1.34,1.34,0,0,0-.17-.73A.55.55,0,0,0,6,32.27a.6.6,0,0,0-.59.33V34a.61.61,0,0,0,.59.34Q6.68,34.32,6.68,33.26Z"/>
          <path class="cls-1" d="M9.72,35.06A1.67,1.67,0,0,1,8.5,34.6,1.63,1.63,0,0,1,8,33.37v-.09a2.06,2.06,0,0,1,.2-.92,1.45,1.45,0,0,1,.56-.62,1.58,1.58,0,0,1,.83-.22,1.41,1.41,0,0,1,1.1.44,1.79,1.79,0,0,1,.4,1.25v.37H8.95a.84.84,0,0,0,.27.53.8.8,0,0,0,.56.2,1,1,0,0,0,.82-.38l.45.5a1.36,1.36,0,0,1-.55.45A1.82,1.82,0,0,1,9.72,35.06Zm-.1-2.8a.57.57,0,0,0-.44.18A1,1,0,0,0,9,33h1.26V32.9a.68.68,0,0,0-.16-.47A.59.59,0,0,0,9.61,32.26Z"/>
          <path class="cls-1" d="M12.47,31.59l0,.39a1.19,1.19,0,0,1,1-.46,1,1,0,0,1,.8.32,1.48,1.48,0,0,1,.27.95V35h-.91V32.82a.59.59,0,0,0-.13-.42.56.56,0,0,0-.42-.13.63.63,0,0,0-.58.33V35h-.91v-3.4Z"/>
          <path class="cls-1" d="M17.67,33.79a.48.48,0,0,0-.19-.41,2.47,2.47,0,0,0-.68-.3,4.81,4.81,0,0,1-.78-.31,1.27,1.27,0,0,1-.78-1.14,1.11,1.11,0,0,1,.21-.66,1.36,1.36,0,0,1,.6-.45,2.26,2.26,0,0,1,.88-.16,2.06,2.06,0,0,1,.87.18,1.39,1.39,0,0,1,.6.5,1.31,1.31,0,0,1,.21.74h-.94a.62.62,0,0,0-.2-.49.81.81,0,0,0-.56-.17.87.87,0,0,0-.54.15.46.46,0,0,0-.19.39.44.44,0,0,0,.22.37,2.54,2.54,0,0,0,.66.28,2.86,2.86,0,0,1,1.17.6,1.2,1.2,0,0,1,.37.89,1.1,1.1,0,0,1-.45.93,2,2,0,0,1-1.21.34,2.34,2.34,0,0,1-1-.19,1.52,1.52,0,0,1-.66-.53,1.36,1.36,0,0,1-.23-.78h.95q0,.76.91.76a.88.88,0,0,0,.53-.14A.44.44,0,0,0,17.67,33.79Z"/>
          <path class="cls-1" d="M20.28,30.76v.84h.58v.67h-.58V34a.41.41,0,0,0,.07.27.36.36,0,0,0,.28.08l.27,0V35a1.87,1.87,0,0,1-.55.08.87.87,0,0,1-1-1V32.26h-.5v-.67h.5v-.84Z"/>
          <path class="cls-1" d="M23.28,32.44l-.33,0a.67.67,0,0,0-.68.35V35h-.91v-3.4h.86l0,.41a.84.84,0,0,1,.76-.47,1,1,0,0,1,.28,0Z"/>
          <path class="cls-1" d="M25.23,35.06A1.67,1.67,0,0,1,24,34.6a1.63,1.63,0,0,1-.47-1.22v-.09a2.06,2.06,0,0,1,.2-.92,1.45,1.45,0,0,1,.56-.62,1.58,1.58,0,0,1,.83-.22,1.41,1.41,0,0,1,1.1.44,1.79,1.79,0,0,1,.4,1.25v.37H24.46a.84.84,0,0,0,.27.53.8.8,0,0,0,.56.2,1,1,0,0,0,.82-.38l.45.5a1.36,1.36,0,0,1-.55.45A1.82,1.82,0,0,1,25.23,35.06Zm-.1-2.8a.57.57,0,0,0-.44.18,1,1,0,0,0-.22.52h1.26V32.9a.68.68,0,0,0-.16-.47A.59.59,0,0,0,25.12,32.26Z"/>
          <path class="cls-1" d="M28.71,35.06a1.67,1.67,0,0,1-1.22-.46A1.63,1.63,0,0,1,27,33.37v-.09a2.06,2.06,0,0,1,.2-.92,1.45,1.45,0,0,1,.56-.62,1.58,1.58,0,0,1,.83-.22,1.41,1.41,0,0,1,1.1.44,1.79,1.79,0,0,1,.4,1.25v.37H27.94a.84.84,0,0,0,.27.53.8.8,0,0,0,.56.2,1,1,0,0,0,.82-.38l.45.5a1.36,1.36,0,0,1-.55.45A1.82,1.82,0,0,1,28.71,35.06Zm-.1-2.8a.57.57,0,0,0-.44.18,1,1,0,0,0-.22.52h1.26V32.9a.68.68,0,0,0-.16-.47A.59.59,0,0,0,28.6,32.26Z"/>
          <path class="cls-1" d="M31.71,30.76v.84h.58v.67h-.58V34a.41.41,0,0,0,.07.27.36.36,0,0,0,.28.08l.27,0V35a1.87,1.87,0,0,1-.55.08.87.87,0,0,1-1-1V32.26h-.5v-.67h.5v-.84Z"/>
          <path class="cls-1" d="M34.09,30.42l1.18,3.32,1.17-3.32h1.24V35h-.95V33.74l.09-2.16L35.59,35h-.65l-1.23-3.41.09,2.16V35h-.94V30.42Z"/>
          <path class="cls-1" d="M40.41,35a1,1,0,0,1-.09-.3,1.1,1.1,0,0,1-.86.37,1.21,1.21,0,0,1-.83-.29A.93.93,0,0,1,38.3,34a1,1,0,0,1,.4-.83,2,2,0,0,1,1.16-.29h.42v-.19a.56.56,0,0,0-.12-.38.48.48,0,0,0-.38-.14.54.54,0,0,0-.36.11.37.37,0,0,0-.13.3h-.91a.91.91,0,0,1,.18-.55,1.21,1.21,0,0,1,.52-.39,1.88,1.88,0,0,1,.75-.14,1.48,1.48,0,0,1,1,.32,1.11,1.11,0,0,1,.37.89v1.47a1.63,1.63,0,0,0,.14.73V35Zm-.75-.63a.78.78,0,0,0,.37-.09.59.59,0,0,0,.25-.24v-.58h-.34q-.68,0-.73.47V34a.36.36,0,0,0,.12.28A.46.46,0,0,0,39.66,34.36Z"/>
          <path class="cls-1" d="M45,33.32a2,2,0,0,1-.36,1.26,1.14,1.14,0,0,1-1,.47,1.06,1.06,0,0,1-.83-.36v1.6h-.91V31.59h.84l0,.33a1.07,1.07,0,0,1,.86-.4,1.15,1.15,0,0,1,1,.47A2.1,2.1,0,0,1,45,33.28ZM44,33.26a1.34,1.34,0,0,0-.17-.73.55.55,0,0,0-.49-.26.6.6,0,0,0-.59.33V34a.61.61,0,0,0,.59.34Q44,34.32,44,33.26Z"/>
        </g>
      </g>
    </g>
  </g>
</svg>
