<svg xmlns="http://www.w3.org/2000/svg" viewBox="0 0 31.12 40">
  <defs>
    <style>
      .cls-1 {
        fill: #333;
      }
    </style>
  </defs>
  <title>pinterest</title>
  <g id="Layer_2" data-name="Layer 2">
    <g id="Слой_1" data-name="Слой 1">
      <path class="cls-1" d="M30.93,11.12C29.84,3.22,22-.81,13.56.14,6.91.88.29,6.25,0,13.93c-.17,4.69,1.16,8.21,5.62,9.2,1.93-3.42-.62-4.17-1-6.64C3,6.36,16.3-.55,23.27,6.52c4.83,4.9,1.65,20-6.13,18.4-7.45-1.5,3.65-13.49-2.3-15.84C10,7.17,7.44,14.93,9.73,18.79,8.39,25.43,5.49,31.68,6.66,40c3.8-2.76,5.08-8,6.13-13.54,1.91,1.16,2.93,2.36,5.37,2.55C27.14,29.7,32.17,20,30.93,11.12Z"/>
    </g>
  </g>
</svg>
