<svg xmlns="http://www.w3.org/2000/svg" viewBox="0 0 32.79 40">
  <defs>
    <style>
      .cls-1 {
        fill: #333;
      }
    </style>
  </defs>
  <title>react</title>
  <g id="Layer_2" data-name="Layer 2">
    <g id="Слой_1" data-name="Слой 1">
      <g>
        <circle class="cls-1" cx="16.4" cy="14.63" r="3"/>
        <path class="cls-1" d="M16.4,25.64c2.35,2.29,4.67,3.64,6.54,3.64a3.24,3.24,0,0,0,1.68-.42c1.68-1,2.29-3.38,1.71-6.83-.1-.61-.23-1.22-.39-1.87.64-.19,1.22-.39,1.8-.58,3.25-1.26,5.06-3,5.06-4.9S31,11,27.74,9.79a14.78,14.78,0,0,0-1.8-.58c.16-.64.29-1.26.39-1.87.55-3.51-.06-6-1.74-6.93A3.24,3.24,0,0,0,22.9,0c-1.84,0-4.19,1.35-6.54,3.64C14,1.35,11.73,0,9.86,0A3.24,3.24,0,0,0,8.18.42C6.51,1.39,5.9,3.8,6.47,7.25c.1.61.23,1.22.39,1.87-.64.19-1.22.39-1.8.58C1.8,11,0,12.69,0,14.59s1.8,3.67,5.06,4.9a14.78,14.78,0,0,0,1.8.58c-.16.64-.29,1.26-.39,1.87-.55,3.45.06,5.9,1.71,6.83a3.24,3.24,0,0,0,1.68.42c1.87.06,4.19-1.29,6.54-3.54Zm-1.8-4.35c.58,0,1.19,0,1.8,0s1.22,0,1.8,0c-.58.77-1.19,1.48-1.8,2.16C15.78,22.78,15.17,22.07,14.59,21.29ZM10.6,18c.32.55.61,1.06,1,1.58-1-.13-1.93-.29-2.83-.48.29-.87.61-1.77,1-2.67C10,16.91,10.28,17.46,10.6,18ZM8.73,10.21c.9-.19,1.84-.35,2.83-.48-.32.52-.64,1-1,1.58s-.61,1.06-.87,1.61A21.54,21.54,0,0,1,8.73,10.21Zm1.77,4.41c.42-.87.87-1.74,1.39-2.61s1-1.68,1.58-2.51c1-.06,1.93-.1,2.93-.1s2,0,2.93.1c.58.84,1.1,1.68,1.58,2.51s1,1.74,1.39,2.61c-.42.87-.87,1.74-1.39,2.61s-1,1.68-1.58,2.51c-1,.06-1.93.1-2.93.1s-2,0-2.93-.1c-.58-.84-1.1-1.68-1.58-2.51S10.92,15.49,10.5,14.63Zm12.6-1.74-.87-1.61c-.32-.55-.61-1.06-1-1.58,1,.13,1.93.29,2.83.48C23.81,11.08,23.48,12,23.1,12.89Zm0,3.48c.39.9.71,1.8,1,2.67-.9.19-1.84.35-2.83.48.32-.52.64-1,1-1.58S22.81,16.91,23.1,16.36Zm.74,11.18a1.75,1.75,0,0,1-.93.23c-1.58,0-3.54-1.29-5.48-3.22a33.73,33.73,0,0,0,2.74-3.38,29.5,29.5,0,0,0,4.32-.68,16.65,16.65,0,0,1,.35,1.74C25.29,25,24.93,26.93,23.84,27.54Zm1.68-17c3.61,1,5.77,2.61,5.77,4.06,0,1.26-1.48,2.51-4.09,3.51-.52.19-1.1.39-1.68.55a33.86,33.86,0,0,0-1.58-4.06A29.18,29.18,0,0,0,25.51,10.57ZM22.94,1.48a1.82,1.82,0,0,1,.93.23c1.06.61,1.45,2.54,1,5.32-.1.55-.23,1.13-.35,1.74a41.81,41.81,0,0,0-4.32-.68A29.76,29.76,0,0,0,17.46,4.7C19.39,2.8,21.36,1.48,22.94,1.48ZM18.2,8c-.58,0-1.19,0-1.8,0s-1.22,0-1.8,0c.58-.77,1.19-1.48,1.8-2.16C17,6.47,17.62,7.22,18.2,8ZM9,1.71a1.75,1.75,0,0,1,.93-.23c1.58,0,3.54,1.29,5.48,3.22a33.73,33.73,0,0,0-2.74,3.38,29.5,29.5,0,0,0-4.32.68A16.65,16.65,0,0,1,8,7C7.51,4.28,7.86,2.35,9,1.71Zm-1.68,17c-3.61-1-5.77-2.61-5.77-4.06,0-1.26,1.48-2.51,4.09-3.51.52-.19,1.1-.39,1.68-.55a33.86,33.86,0,0,0,1.58,4.06A30.82,30.82,0,0,0,7.28,18.68ZM8,22.23c.1-.55.23-1.13.35-1.74a41.81,41.81,0,0,0,4.32.68,29.76,29.76,0,0,0,2.74,3.38c-1.93,1.9-3.9,3.22-5.48,3.22A1.82,1.82,0,0,1,9,27.54C7.86,26.93,7.51,25,8,22.23ZM6.6,35.5A2.63,2.63,0,0,0,7,32.7a2.27,2.27,0,0,0-2.19-1.45c-1.19,0-2.42,0-3.61,0H.93v8.34h1V36.43H3.41a.49.49,0,0,1,.45.23l1.93,3c0,.06.13.16.19.16H7.25C6.47,38.62,5.73,37.5,5,36.34A2.34,2.34,0,0,0,6.6,35.5Zm-4.7-.06V32.25h.35c.74,0,1.51,0,2.25,0A1.52,1.52,0,0,1,6,33.86a1.6,1.6,0,0,1-1.58,1.58C3.64,35.47,2.87,35.44,1.9,35.44Zm12.47.42a2.91,2.91,0,0,0-4.16-2.13,3,3,0,0,0-1.8,2.93,3.12,3.12,0,0,0,1,2.58,3.42,3.42,0,0,0,3,.68A3,3,0,0,0,14,39c-.16-.23-.32-.45-.48-.64a2.61,2.61,0,0,1-3,.52A2.39,2.39,0,0,1,9.44,37h5v-.42A2,2,0,0,0,14.37,35.85Zm-4.86.52a2,2,0,0,1,1.93-2,1.85,1.85,0,0,1,2,2Zm9.89-2.8a5.74,5.74,0,0,0-1.48-.1,3.06,3.06,0,0,0-2,1c.16.23.29.45.48.71a.85.85,0,0,1,.19-.16,2.34,2.34,0,0,1,1.87-.68,1.25,1.25,0,0,1,1.29.81,6.83,6.83,0,0,1,.13,1.42.19.19,0,0,1-.16-.06A2.78,2.78,0,0,0,17.14,36a1.92,1.92,0,0,0-1.48,1.77,2,2,0,0,0,1.26,2.09,2.91,2.91,0,0,0,1.74.1c.45-.1.64-.35,1.29-.71v.42h.9c0-1.29,0-2.87,0-4.35A1.65,1.65,0,0,0,19.39,33.57Zm.45,4.06a.88.88,0,0,0,0,.29c0,.68-.16.9-.81,1.16a2.14,2.14,0,0,1-1.42.06,1.27,1.27,0,0,1-.93-1.19,1.25,1.25,0,0,1,.87-1.26,2.1,2.1,0,0,1,2,.35A.54.54,0,0,1,19.84,37.63Zm5-3.19a1.91,1.91,0,0,1,2.19.61l.1.06c.23-.19.42-.39.68-.61a1.34,1.34,0,0,1-.19-.26,3.15,3.15,0,0,0-3.9-.32A3.56,3.56,0,0,0,23,38.53,3,3,0,0,0,26,39.88a2.72,2.72,0,0,0,1.84-1.06c-.23-.19-.45-.39-.68-.61a.57.57,0,0,0-.13.16A2,2,0,0,1,24,38.21a2.55,2.55,0,0,1-.42-2,1.89,1.89,0,0,1,1.32-1.74Zm6.7,4.38a.4.4,0,0,0-.1.06.82.82,0,0,1-.81.13c-.29-.13-.32-.39-.35-.64V34.69c0-.06,0,.06,0-.26h1.22v-1H30.28V31.86h-1V33.6h-.84c-.06,0-.16.06-.16.13a5.15,5.15,0,0,0,0,.71h1v4.12a1.28,1.28,0,0,0,.58,1.22,1.87,1.87,0,0,0,1.84-.13c.06,0,.1-.16.1-.19C31.76,39.27,31.67,39,31.57,38.82Z"/>
      </g>
    </g>
  </g>
</svg>
