<svg xmlns="http://www.w3.org/2000/svg" viewBox="0 0 34.9 40">
  <defs>
    <style>
      .cls-1 {
        fill: #333;
      }
    </style>
  </defs>
  <title>vuejs</title>
  <g id="Layer_2" data-name="Layer 2">
    <g id="Слой_1" data-name="Слой 1">
      <g>
        <path class="cls-1" d="M7.3,30.26a.61.61,0,0,0-.33.1.4.4,0,0,0-.19.33.23.23,0,0,0,0,.14v0l2,6.64a.46.46,0,0,0,.22.27.64.64,0,0,0,.31.07.54.54,0,0,0,.54-.34h0l2-6.66v0s0,0,0-.06a.41.41,0,0,0-.2-.33.62.62,0,0,0-.35-.11.42.42,0,0,0-.39.27h0L9.37,36.05,7.71,30.54a.37.37,0,0,0-.17-.22.46.46,0,0,0-.24-.06Zm16.29.34a.56.56,0,1,0,.58.56A.57.57,0,0,0,23.59,30.6Zm-4.8,2.12a2,2,0,0,0-2,2v1.1a1.91,1.91,0,0,0,.64,1.47A2.43,2.43,0,0,0,19,37.8a2.5,2.5,0,0,0,1.15-.25,1.22,1.22,0,0,0,.33-.24.45.45,0,0,0,.14-.31.46.46,0,0,0-.11-.29.41.41,0,0,0-.32-.17.46.46,0,0,0-.25.08l-.21.13a1.34,1.34,0,0,1-.72.18,1.5,1.5,0,0,1-1-.31,1,1,0,0,1-.37-.81V35.6h2.06a1.2,1.2,0,0,0,.67-.13.89.89,0,0,0,.34-.81,2,2,0,0,0-2-1.94Zm7.72,0a1.76,1.76,0,0,0-1.3.48,1.44,1.44,0,0,0-.4,1,1.18,1.18,0,0,0,.44,1,2.59,2.59,0,0,0,.88.4,3.66,3.66,0,0,1,.79.3.55.55,0,0,1,.3.53.43.43,0,0,1-.17.37,1.09,1.09,0,0,1-.69.17,1.44,1.44,0,0,1-.81-.21l-.22-.15a.44.44,0,0,0-.26-.1.36.36,0,0,0-.29.17.49.49,0,0,0-.09.28.51.51,0,0,0,.15.34,1.26,1.26,0,0,0,.36.26,2.6,2.6,0,0,0,1.18.26,2,2,0,0,0,1.26-.38,1.31,1.31,0,0,0,.47-1,1.35,1.35,0,0,0-.43-1.05,2.34,2.34,0,0,0-.89-.44,5.47,5.47,0,0,1-.81-.27c-.2-.11-.3-.2-.3-.43a.56.56,0,0,1,.17-.39.89.89,0,0,1,.65-.22,1.57,1.57,0,0,1,.62.13l.21.09a.49.49,0,0,0,.21.06.39.39,0,0,0,.32-.2.52.52,0,0,0,.1-.29.38.38,0,0,0-.18-.3,1.27,1.27,0,0,0-.34-.18,2.86,2.86,0,0,0-1-.16Zm-14,.06a.44.44,0,0,0-.48.4V35.8a2,2,0,0,0,4,0V33.18a.37.37,0,0,0-.15-.29.52.52,0,0,0-.32-.1.54.54,0,0,0-.32.1.37.37,0,0,0-.16.29V35.8a1.07,1.07,0,1,1-2.14,0V33.19a.37.37,0,0,0-.15-.29.5.5,0,0,0-.32-.11Zm11.07,0a.52.52,0,0,0-.32.1.37.37,0,0,0-.15.29V38a2.39,2.39,0,0,1-.1.85.4.4,0,0,1-.45.27.44.44,0,0,0-.43.45.43.43,0,0,0,.12.3.5.5,0,0,0,.36.14,1.28,1.28,0,0,0,1.13-.59A2.65,2.65,0,0,0,24.07,38V33.18a.37.37,0,0,0-.16-.3.55.55,0,0,0-.32-.09Zm-4.81.78a1.07,1.07,0,0,1,1.07,1.08.4.4,0,0,1,0,.12l0,0a.8.8,0,0,1-.31,0h-1.8v-.22a1.06,1.06,0,0,1,1.07-1Zm3,3a.61.61,0,1,0,.6.62A.61.61,0,0,0,21.82,36.56Z"/>
        <path class="cls-1" d="M0,0,13.59,0l3.9,6.66L21.39,0,34.9,0,17.5,30ZM34.62.17H28l-10.49,18L7,.18H.26L17.49,29.59Z"/>
      </g>
    </g>
  </g>
</svg>
